<svg xmlns="http://www.w3.org/2000/svg" xmlns:xlink="http://www.w3.org/1999/xlink" width="220pt" height="247pt" viewBox="0 0 220 246.8"><g id="graph0" class="graph" transform="scale(1 1) rotate(0) translate(4 242.8)"><title>dependencies</title><polygon fill="#fff" stroke="transparent" points="-4 4 -4 -242.8 216 -242.8 216 4 -4 4"/><text x="106" y="-8.2" font-family="sans-serif" font-size="14" text-anchor="middle">dependencies</text><g id="clust1" class="cluster"><title>cluster_PassengersModule</title><polygon fill="none" stroke="#000" stroke-dasharray="1 5" points="8 -32.8 8 -230.8 204 -230.8 204 -32.8 8 -32.8"/></g><g id="clust4" class="cluster"><title>cluster_PassengersModule_exports</title><polygon fill="none" stroke="#000" points="37 -170.8 37 -222.8 175 -222.8 175 -170.8 37 -170.8"/></g><g id="clust6" class="cluster"><title>cluster_PassengersModule_providers</title><polygon fill="none" stroke="#000" points="16 -40.8 16 -92.8 196 -92.8 196 -40.8 16 -40.8"/></g><g id="node1" class="node"><title>PassengersService</title><polygon fill="#fb8072" stroke="#000" points="167.4 -214.8 44.6 -214.8 44.6 -178.8 167.4 -178.8 167.4 -214.8"/><text x="106" y="-192.6" font-family="Times,serif" font-size="14" text-anchor="middle">PassengersService</text></g><g id="node2" class="node"><title>PassengersModule</title><polygon fill="#8dd3c7" stroke="#000" points="166.47 -149.8 163.47 -153.8 142.47 -153.8 139.47 -149.8 45.53 -149.8 45.53 -113.8 166.47 -113.8 166.47 -149.8"/><text x="106" y="-127.6" font-family="Times,serif" font-size="14" text-anchor="middle">PassengersModule</text></g><g id="edge1" class="edge"><title>PassengersModule-&gt;PassengersService</title><path fill="none" stroke="#000" stroke-dasharray="5 2" d="M106,-149.91C106,-149.91 106,-168.79 106,-168.79"/><polygon fill="#000" stroke="#000" points="102.5 -168.79 106 -178.79 109.5 -168.79 102.5 -168.79"/></g><g id="node3" class="node"><title>PassengersService</title><ellipse cx="106" cy="-66.8" fill="#fdb462" stroke="#000" rx="82.22" ry="18"/><text x="106" y="-62.6" font-family="Times,serif" font-size="14" text-anchor="middle">PassengersService</text></g><g id="edge2" class="edge"><title>PassengersService-&gt;PassengersModule</title><path fill="none" stroke="#000" d="M106,-84.91C106,-84.91 106,-103.79 106,-103.79"/><polygon fill="#000" stroke="#000" points="102.5 -103.79 106 -113.79 109.5 -103.79 102.5 -103.79"/></g></g></svg>