<svg xmlns="http://www.w3.org/2000/svg" xmlns:xlink="http://www.w3.org/1999/xlink" width="316pt" height="232" viewBox="0 0 316 173.8"><g id="graph0" class="graph" transform="scale(1 1) rotate(0) translate(4 169.8)"><title>dependencies</title><polygon fill="#fff" stroke="transparent" points="-4 4 -4 -169.8 312 -169.8 312 4 -4 4"/><text x="154" y="-8.2" font-family="sans-serif" font-size="14" text-anchor="middle">dependencies</text><g id="clust1" class="cluster"><title>cluster_UsersModule</title><polygon fill="none" stroke="#000" stroke-dasharray="1 5" points="8 -32.8 8 -157.8 300 -157.8 300 -32.8 8 -32.8"/></g><g id="clust6" class="cluster"><title>cluster_UsersModule_providers</title><polygon fill="none" stroke="#000" points="16 -40.8 16 -92.8 292 -92.8 292 -40.8 16 -40.8"/></g><g id="node1" class="node"><title>AuthService</title><ellipse cx="225" cy="-66.8" fill="#fdb462" stroke="#000" rx="59.11" ry="18"/><text x="225" y="-62.6" font-family="Times,serif" font-size="14" text-anchor="middle">AuthService</text></g><g id="node3" class="node"><title>UsersModule</title><polygon fill="#8dd3c7" stroke="#000" points="200.92 -149.8 197.92 -153.8 176.92 -153.8 173.92 -149.8 109.08 -149.8 109.08 -113.8 200.92 -113.8 200.92 -149.8"/><text x="155" y="-127.6" font-family="Times,serif" font-size="14" text-anchor="middle">UsersModule</text></g><g id="edge1" class="edge"><title>AuthService-&gt;UsersModule</title><path fill="none" stroke="#000" d="M183.2,-79.64C183.2,-79.64 183.2,-103.32 183.2,-103.32"/><polygon fill="#000" stroke="#000" points="179.7 -103.32 183.2 -113.32 186.7 -103.32 179.7 -103.32"/></g><g id="node2" class="node"><title>UsersService</title><ellipse cx="86" cy="-66.8" fill="#fdb462" stroke="#000" rx="61.95" ry="18"/><text x="86" y="-62.6" font-family="Times,serif" font-size="14" text-anchor="middle">UsersService</text></g><g id="edge2" class="edge"><title>UsersService-&gt;UsersModule</title><path fill="none" stroke="#000" d="M128.63,-79.95C128.63,-79.95 128.63,-103.49 128.63,-103.49"/><polygon fill="#000" stroke="#000" points="125.13 -103.49 128.63 -113.49 132.13 -103.49 125.13 -103.49"/></g></g></svg>