<?xml version="1.0" encoding="UTF-8" standalone="no"?>
<!DOCTYPE svg PUBLIC "-//W3C//DTD SVG 1.1//EN"
 "http://www.w3.org/Graphics/SVG/1.1/DTD/svg11.dtd">
<!-- Generated by graphviz version 2.47.3 (20210619.1520)
 -->
<!-- Title: dependencies Pages: 1 -->
<svg width="579pt" height="247pt"
 viewBox="0.00 0.00 579.00 246.80" xmlns="http://www.w3.org/2000/svg" xmlns:xlink="http://www.w3.org/1999/xlink">
<g id="graph0" class="graph" transform="scale(1 1) rotate(0) translate(4 242.8)">
<title>dependencies</title>
<polygon fill="white" stroke="transparent" points="-4,4 -4,-242.8 575,-242.8 575,4 -4,4"/>
<text text-anchor="middle" x="285.5" y="-8.2" font-family="sans-serif" font-size="14.00">dependencies</text>
<g id="clust1" class="cluster">
<title>cluster_BookingsModule</title>
<polygon fill="none" stroke="black" stroke-dasharray="1,5" points="8,-32.8 8,-230.8 563,-230.8 563,-32.8 8,-32.8"/>
</g>
<g id="clust6" class="cluster">
<title>cluster_BookingsModule_providers</title>
<polygon fill="none" stroke="black" points="385,-40.8 385,-92.8 555,-92.8 555,-40.8 385,-40.8"/>
</g>
<g id="clust4" class="cluster">
<title>cluster_BookingsModule_exports</title>
<polygon fill="none" stroke="black" points="190,-170.8 190,-222.8 322,-222.8 322,-170.8 190,-170.8"/>
</g>
<g id="clust3" class="cluster">
<title>cluster_BookingsModule_imports</title>
<polygon fill="none" stroke="black" points="16,-40.8 16,-92.8 377,-92.8 377,-40.8 16,-40.8"/>
</g>
<!-- FlightsModule -->
<g id="node1" class="node">
<title>FlightsModule</title>
<polygon fill="#8dd3c7" stroke="black" points="369.45,-84.8 366.45,-88.8 345.45,-88.8 342.45,-84.8 270.55,-84.8 270.55,-48.8 369.45,-48.8 369.45,-84.8"/>
<text text-anchor="middle" x="320" y="-62.6" font-family="Times,serif" font-size="14.00">FlightsModule</text>
</g>
<!-- BookingsModule -->
<g id="node4" class="node">
<title>BookingsModule</title>
<polygon fill="#8dd3c7" stroke="black" points="312.72,-149.8 309.72,-153.8 288.72,-153.8 285.72,-149.8 199.28,-149.8 199.28,-113.8 312.72,-113.8 312.72,-149.8"/>
<text text-anchor="middle" x="256" y="-127.6" font-family="Times,serif" font-size="14.00">BookingsModule</text>
</g>
<!-- FlightsModule&#45;&gt;BookingsModule -->
<g id="edge1" class="edge">
<title>FlightsModule&#45;&gt;BookingsModule</title>
<path fill="none" stroke="black" d="M291.69,-84.91C291.69,-84.91 291.69,-103.79 291.69,-103.79"/>
<polygon fill="black" stroke="black" points="288.19,-103.79 291.69,-113.79 295.19,-103.79 288.19,-103.79"/>
</g>
<!-- PassengersModule -->
<g id="node2" class="node">
<title>PassengersModule</title>
<polygon fill="#8dd3c7" stroke="black" points="252.47,-84.8 249.47,-88.8 228.47,-88.8 225.47,-84.8 131.53,-84.8 131.53,-48.8 252.47,-48.8 252.47,-84.8"/>
<text text-anchor="middle" x="192" y="-62.6" font-family="Times,serif" font-size="14.00">PassengersModule</text>
</g>
<!-- PassengersModule&#45;&gt;BookingsModule -->
<g id="edge2" class="edge">
<title>PassengersModule&#45;&gt;BookingsModule</title>
<path fill="none" stroke="black" d="M225.94,-84.91C225.94,-84.91 225.94,-103.79 225.94,-103.79"/>
<polygon fill="black" stroke="black" points="222.44,-103.79 225.94,-113.79 229.44,-103.79 222.44,-103.79"/>
</g>
<!-- SeatsModule -->
<g id="node3" class="node">
<title>SeatsModule</title>
<polygon fill="#8dd3c7" stroke="black" points="113.6,-84.8 110.6,-88.8 89.6,-88.8 86.6,-84.8 24.4,-84.8 24.4,-48.8 113.6,-48.8 113.6,-84.8"/>
<text text-anchor="middle" x="69" y="-62.6" font-family="Times,serif" font-size="14.00">SeatsModule</text>
</g>
<!-- SeatsModule&#45;&gt;BookingsModule -->
<g id="edge3" class="edge">
<title>SeatsModule&#45;&gt;BookingsModule</title>
<path fill="none" stroke="black" d="M69,-84.91C69,-104.14 69,-131.8 69,-131.8 69,-131.8 189.39,-131.8 189.39,-131.8"/>
<polygon fill="black" stroke="black" points="189.39,-135.3 199.39,-131.8 189.39,-128.3 189.39,-135.3"/>
</g>
<!-- BookingsService  -->
<g id="node5" class="node">
<title>BookingsService </title>
<polygon fill="#fb8072" stroke="black" points="313.65,-214.8 198.35,-214.8 198.35,-178.8 313.65,-178.8 313.65,-214.8"/>
<text text-anchor="middle" x="256" y="-192.6" font-family="Times,serif" font-size="14.00">BookingsService </text>
</g>
<!-- BookingsModule&#45;&gt;BookingsService  -->
<g id="edge4" class="edge">
<title>BookingsModule&#45;&gt;BookingsService </title>
<path fill="none" stroke="black" stroke-dasharray="5,2" d="M256,-149.91C256,-149.91 256,-168.79 256,-168.79"/>
<polygon fill="black" stroke="black" points="252.5,-168.79 256,-178.79 259.5,-168.79 252.5,-168.79"/>
</g>
<!-- BookingsService -->
<g id="node6" class="node">
<title>BookingsService</title>
<ellipse fill="#fdb462" stroke="black" cx="470" cy="-66.8" rx="77.03" ry="18"/>
<text text-anchor="middle" x="470" y="-62.6" font-family="Times,serif" font-size="14.00">BookingsService</text>
</g>
<!-- BookingsService&#45;&gt;BookingsModule -->
<g id="edge5" class="edge">
<title>BookingsService&#45;&gt;BookingsModule</title>
<path fill="none" stroke="black" d="M470,-84.91C470,-104.14 470,-131.8 470,-131.8 470,-131.8 322.79,-131.8 322.79,-131.8"/>
<polygon fill="black" stroke="black" points="322.79,-128.3 312.79,-131.8 322.79,-135.3 322.79,-128.3"/>
</g>
</g>
</svg>
