<svg xmlns="http://www.w3.org/2000/svg" xmlns:xlink="http://www.w3.org/1999/xlink" width="772" height="232" viewBox="0 0 579 173.8"><g id="graph0" class="graph" transform="scale(1 1) rotate(0) translate(4 169.8)"><title>dependencies</title><polygon fill="#fff" stroke="transparent" points="-4 4 -4 -169.8 575 -169.8 575 4 -4 4"/><text x="285.5" y="-8.2" font-family="sans-serif" font-size="14" text-anchor="middle">dependencies</text><g id="clust1" class="cluster"><title>cluster_BookingsModule</title><polygon fill="none" stroke="#000" stroke-dasharray="1 5" points="8 -32.8 8 -157.8 563 -157.8 563 -32.8 8 -32.8"/></g><g id="clust6" class="cluster"><title>cluster_BookingsModule_providers</title><polygon fill="none" stroke="#000" points="385 -40.8 385 -92.8 555 -92.8 555 -40.8 385 -40.8"/></g><g id="clust3" class="cluster"><title>cluster_BookingsModule_imports</title><polygon fill="none" stroke="#000" points="16 -40.8 16 -92.8 377 -92.8 377 -40.8 16 -40.8"/></g><g id="node1" class="node"><title>FlightsModule</title><polygon fill="#8dd3c7" stroke="#000" points="369.45 -84.8 366.45 -88.8 345.45 -88.8 342.45 -84.8 270.55 -84.8 270.55 -48.8 369.45 -48.8 369.45 -84.8"/><text x="320" y="-62.6" font-family="Times,serif" font-size="14" text-anchor="middle">FlightsModule</text></g><g id="node4" class="node"><title>BookingsModule</title><polygon fill="#8dd3c7" stroke="#000" points="312.72 -149.8 309.72 -153.8 288.72 -153.8 285.72 -149.8 199.28 -149.8 199.28 -113.8 312.72 -113.8 312.72 -149.8"/><text x="256" y="-127.6" font-family="Times,serif" font-size="14" text-anchor="middle">BookingsModule</text></g><g id="edge1" class="edge"><title>FlightsModule-&gt;BookingsModule</title><path fill="none" stroke="#000" d="M291.69,-84.91C291.69,-84.91 291.69,-103.79 291.69,-103.79"/><polygon fill="#000" stroke="#000" points="288.19 -103.79 291.69 -113.79 295.19 -103.79 288.19 -103.79"/></g><g id="node2" class="node"><title>PassengersModule</title><polygon fill="#8dd3c7" stroke="#000" points="252.47 -84.8 249.47 -88.8 228.47 -88.8 225.47 -84.8 131.53 -84.8 131.53 -48.8 252.47 -48.8 252.47 -84.8"/><text x="192" y="-62.6" font-family="Times,serif" font-size="14" text-anchor="middle">PassengersModule</text></g><g id="edge2" class="edge"><title>PassengersModule-&gt;BookingsModule</title><path fill="none" stroke="#000" d="M225.94,-84.91C225.94,-84.91 225.94,-103.79 225.94,-103.79"/><polygon fill="#000" stroke="#000" points="222.44 -103.79 225.94 -113.79 229.44 -103.79 222.44 -103.79"/></g><g id="node3" class="node"><title>SeatsModule</title><polygon fill="#8dd3c7" stroke="#000" points="113.6 -84.8 110.6 -88.8 89.6 -88.8 86.6 -84.8 24.4 -84.8 24.4 -48.8 113.6 -48.8 113.6 -84.8"/><text x="69" y="-62.6" font-family="Times,serif" font-size="14" text-anchor="middle">SeatsModule</text></g><g id="edge3" class="edge"><title>SeatsModule-&gt;BookingsModule</title><path fill="none" stroke="#000" d="M69,-84.91C69,-104.14 69,-131.8 69,-131.8 69,-131.8 189.39,-131.8 189.39,-131.8"/><polygon fill="#000" stroke="#000" points="189.39 -135.3 199.39 -131.8 189.39 -128.3 189.39 -135.3"/></g><g id="node5" class="node"><title>BookingsService</title><ellipse cx="470" cy="-66.8" fill="#fdb462" stroke="#000" rx="77.03" ry="18"/><text x="470" y="-62.6" font-family="Times,serif" font-size="14" text-anchor="middle">BookingsService</text></g><g id="edge4" class="edge"><title>BookingsService-&gt;BookingsModule</title><path fill="none" stroke="#000" d="M470,-84.91C470,-104.14 470,-131.8 470,-131.8 470,-131.8 322.79,-131.8 322.79,-131.8"/><polygon fill="#000" stroke="#000" points="322.79 -128.3 312.79 -131.8 322.79 -135.3 322.79 -128.3"/></g></g></svg>