<svg xmlns="http://www.w3.org/2000/svg" xmlns:xlink="http://www.w3.org/1999/xlink" width="190pt" height="247pt" viewBox="0 0 190 246.8"><g id="graph0" class="graph" transform="scale(1 1) rotate(0) translate(4 242.8)"><title>dependencies</title><polygon fill="#fff" stroke="transparent" points="-4 4 -4 -242.8 186 -242.8 186 4 -4 4"/><text x="91" y="-8.2" font-family="sans-serif" font-size="14" text-anchor="middle">dependencies</text><g id="clust1" class="cluster"><title>cluster_FlightsModule</title><polygon fill="none" stroke="#000" stroke-dasharray="1 5" points="8 -32.8 8 -230.8 174 -230.8 174 -32.8 8 -32.8"/></g><g id="clust4" class="cluster"><title>cluster_FlightsModule_exports</title><polygon fill="none" stroke="#000" points="33 -170.8 33 -222.8 149 -222.8 149 -170.8 33 -170.8"/></g><g id="clust6" class="cluster"><title>cluster_FlightsModule_providers</title><polygon fill="none" stroke="#000" points="16 -40.8 16 -92.8 166 -92.8 166 -40.8 16 -40.8"/></g><g id="node1" class="node"><title>FlightsService</title><polygon fill="#fb8072" stroke="#000" points="141.38 -214.8 40.62 -214.8 40.62 -178.8 141.38 -178.8 141.38 -214.8"/><text x="91" y="-192.6" font-family="Times,serif" font-size="14" text-anchor="middle">FlightsService</text></g><g id="node2" class="node"><title>FlightsModule</title><polygon fill="#8dd3c7" stroke="#000" points="140.45 -149.8 137.45 -153.8 116.45 -153.8 113.45 -149.8 41.55 -149.8 41.55 -113.8 140.45 -113.8 140.45 -149.8"/><text x="91" y="-127.6" font-family="Times,serif" font-size="14" text-anchor="middle">FlightsModule</text></g><g id="edge1" class="edge"><title>FlightsModule-&gt;FlightsService</title><path fill="none" stroke="#000" stroke-dasharray="5 2" d="M91,-149.91C91,-149.91 91,-168.79 91,-168.79"/><polygon fill="#000" stroke="#000" points="87.5 -168.79 91 -178.79 94.5 -168.79 87.5 -168.79"/></g><g id="node3" class="node"><title>FlightsService</title><ellipse cx="91" cy="-66.8" fill="#fdb462" stroke="#000" rx="66.65" ry="18"/><text x="91" y="-62.6" font-family="Times,serif" font-size="14" text-anchor="middle">FlightsService</text></g><g id="edge2" class="edge"><title>FlightsService-&gt;FlightsModule</title><path fill="none" stroke="#000" d="M91,-84.91C91,-84.91 91,-103.79 91,-103.79"/><polygon fill="#000" stroke="#000" points="87.5 -103.79 91 -113.79 94.5 -103.79 87.5 -103.79"/></g></g></svg>