<?xml version="1.0" encoding="UTF-8" standalone="no"?>
<!DOCTYPE svg PUBLIC "-//W3C//DTD SVG 1.1//EN"
 "http://www.w3.org/Graphics/SVG/1.1/DTD/svg11.dtd">
<!-- Generated by graphviz version 2.47.3 (20210619.1520)
 -->
<!-- Title: dependencies Pages: 1 -->
<svg width="298pt" height="174pt"
 viewBox="0.00 0.00 298.00 173.80" xmlns="http://www.w3.org/2000/svg" xmlns:xlink="http://www.w3.org/1999/xlink">
<g id="graph0" class="graph" transform="scale(1 1) rotate(0) translate(4 169.8)">
<title>dependencies</title>
<polygon fill="white" stroke="transparent" points="-4,4 -4,-169.8 294,-169.8 294,4 -4,4"/>
<text text-anchor="middle" x="145" y="-8.2" font-family="sans-serif" font-size="14.00">dependencies</text>
<g id="clust1" class="cluster">
<title>cluster_SeatsModule</title>
<polygon fill="none" stroke="black" stroke-dasharray="1,5" points="8,-32.8 8,-157.8 282,-157.8 282,-32.8 8,-32.8"/>
</g>
<g id="clust3" class="cluster">
<title>cluster_SeatsModule_imports</title>
<polygon fill="none" stroke="black" points="160,-40.8 160,-92.8 274,-92.8 274,-40.8 160,-40.8"/>
</g>
<g id="clust6" class="cluster">
<title>cluster_SeatsModule_providers</title>
<polygon fill="none" stroke="black" points="16,-40.8 16,-92.8 152,-92.8 152,-40.8 16,-40.8"/>
</g>
<!-- FlightsModule -->
<g id="node1" class="node">
<title>FlightsModule</title>
<polygon fill="#8dd3c7" stroke="black" points="266.45,-84.8 263.45,-88.8 242.45,-88.8 239.45,-84.8 167.55,-84.8 167.55,-48.8 266.45,-48.8 266.45,-84.8"/>
<text text-anchor="middle" x="217" y="-62.6" font-family="Times,serif" font-size="14.00">FlightsModule</text>
</g>
<!-- SeatsModule -->
<g id="node2" class="node">
<title>SeatsModule</title>
<polygon fill="#8dd3c7" stroke="black" points="194.6,-149.8 191.6,-153.8 170.6,-153.8 167.6,-149.8 105.4,-149.8 105.4,-113.8 194.6,-113.8 194.6,-149.8"/>
<text text-anchor="middle" x="150" y="-127.6" font-family="Times,serif" font-size="14.00">SeatsModule</text>
</g>
<!-- FlightsModule&#45;&gt;SeatsModule -->
<g id="edge1" class="edge">
<title>FlightsModule&#45;&gt;SeatsModule</title>
<path fill="none" stroke="black" d="M181.16,-84.91C181.16,-84.91 181.16,-103.79 181.16,-103.79"/>
<polygon fill="black" stroke="black" points="177.66,-103.79 181.16,-113.79 184.66,-103.79 177.66,-103.79"/>
</g>
<!-- SeatsService -->
<g id="node3" class="node">
<title>SeatsService</title>
<ellipse fill="#fdb462" stroke="black" cx="84" cy="-66.8" rx="60.25" ry="18"/>
<text text-anchor="middle" x="84" y="-62.6" font-family="Times,serif" font-size="14.00">SeatsService</text>
</g>
<!-- SeatsService&#45;&gt;SeatsModule -->
<g id="edge2" class="edge">
<title>SeatsService&#45;&gt;SeatsModule</title>
<path fill="none" stroke="black" d="M124.91,-80.27C124.91,-80.27 124.91,-103.66 124.91,-103.66"/>
<polygon fill="black" stroke="black" points="121.41,-103.66 124.91,-113.66 128.41,-103.66 121.41,-103.66"/>
</g>
</g>
</svg>
