<svg xmlns="http://www.w3.org/2000/svg" xmlns:xlink="http://www.w3.org/1999/xlink" width="298pt" height="232" viewBox="0 0 298 173.8"><g id="graph0" class="graph" transform="scale(1 1) rotate(0) translate(4 169.8)"><title>dependencies</title><polygon fill="#fff" stroke="transparent" points="-4 4 -4 -169.8 294 -169.8 294 4 -4 4"/><text x="145" y="-8.2" font-family="sans-serif" font-size="14" text-anchor="middle">dependencies</text><g id="clust1" class="cluster"><title>cluster_SeatsModule</title><polygon fill="none" stroke="#000" stroke-dasharray="1 5" points="8 -32.8 8 -157.8 282 -157.8 282 -32.8 8 -32.8"/></g><g id="clust3" class="cluster"><title>cluster_SeatsModule_imports</title><polygon fill="none" stroke="#000" points="160 -40.8 160 -92.8 274 -92.8 274 -40.8 160 -40.8"/></g><g id="clust6" class="cluster"><title>cluster_SeatsModule_providers</title><polygon fill="none" stroke="#000" points="16 -40.8 16 -92.8 152 -92.8 152 -40.8 16 -40.8"/></g><g id="node1" class="node"><title>FlightsModule</title><polygon fill="#8dd3c7" stroke="#000" points="266.45 -84.8 263.45 -88.8 242.45 -88.8 239.45 -84.8 167.55 -84.8 167.55 -48.8 266.45 -48.8 266.45 -84.8"/><text x="217" y="-62.6" font-family="Times,serif" font-size="14" text-anchor="middle">FlightsModule</text></g><g id="node2" class="node"><title>SeatsModule</title><polygon fill="#8dd3c7" stroke="#000" points="194.6 -149.8 191.6 -153.8 170.6 -153.8 167.6 -149.8 105.4 -149.8 105.4 -113.8 194.6 -113.8 194.6 -149.8"/><text x="150" y="-127.6" font-family="Times,serif" font-size="14" text-anchor="middle">SeatsModule</text></g><g id="edge1" class="edge"><title>FlightsModule-&gt;SeatsModule</title><path fill="none" stroke="#000" d="M181.16,-84.91C181.16,-84.91 181.16,-103.79 181.16,-103.79"/><polygon fill="#000" stroke="#000" points="177.66 -103.79 181.16 -113.79 184.66 -103.79 177.66 -103.79"/></g><g id="node3" class="node"><title>SeatsService</title><ellipse cx="84" cy="-66.8" fill="#fdb462" stroke="#000" rx="60.25" ry="18"/><text x="84" y="-62.6" font-family="Times,serif" font-size="14" text-anchor="middle">SeatsService</text></g><g id="edge2" class="edge"><title>SeatsService-&gt;SeatsModule</title><path fill="none" stroke="#000" d="M124.91,-80.27C124.91,-80.27 124.91,-103.66 124.91,-103.66"/><polygon fill="#000" stroke="#000" points="121.41 -103.66 124.91 -113.66 128.41 -103.66 121.41 -103.66"/></g></g></svg>