<svg xmlns="http://www.w3.org/2000/svg" xmlns:xlink="http://www.w3.org/1999/xlink" width="509pt" height="232" viewBox="0 0 509 173.8"><g id="graph0" class="graph" transform="scale(1 1) rotate(0) translate(4 169.8)"><title>dependencies</title><polygon fill="#fff" stroke="transparent" points="-4 4 -4 -169.8 505 -169.8 505 4 -4 4"/><text x="250.5" y="-8.2" font-family="sans-serif" font-size="14" text-anchor="middle">dependencies</text><g id="clust1" class="cluster"><title>cluster_AppModule</title><polygon fill="none" stroke="#000" stroke-dasharray="1 5" points="8 -32.8 8 -157.8 493 -157.8 493 -32.8 8 -32.8"/></g><g id="clust3" class="cluster"><title>cluster_AppModule_imports</title><polygon fill="none" stroke="#000" points="154 -40.8 154 -92.8 485 -92.8 485 -40.8 154 -40.8"/></g><g id="clust6" class="cluster"><title>cluster_AppModule_providers</title><polygon fill="none" stroke="#000" points="16 -40.8 16 -92.8 146 -92.8 146 -40.8 16 -40.8"/></g><g id="node1" class="node"><title>FlightsModule</title><polygon fill="#8dd3c7" stroke="#000" points="477.45 -84.8 474.45 -88.8 453.45 -88.8 450.45 -84.8 378.55 -84.8 378.55 -48.8 477.45 -48.8 477.45 -84.8"/><text x="428" y="-62.6" font-family="Times,serif" font-size="14" text-anchor="middle">FlightsModule</text></g><g id="node4" class="node"><title>AppModule</title><polygon fill="#8dd3c7" stroke="#000" points="303.66 -149.8 300.66 -153.8 279.66 -153.8 276.66 -149.8 220.34 -149.8 220.34 -113.8 303.66 -113.8 303.66 -149.8"/><text x="262" y="-127.6" font-family="Times,serif" font-size="14" text-anchor="middle">AppModule</text></g><g id="edge1" class="edge"><title>FlightsModule-&gt;AppModule</title><path fill="none" stroke="#000" d="M428,-84.91C428,-104.14 428,-131.8 428,-131.8 428,-131.8 313.89,-131.8 313.89,-131.8"/><polygon fill="#000" stroke="#000" points="313.89 -128.3 303.89 -131.8 313.89 -135.3 313.89 -128.3"/></g><g id="node2" class="node"><title>SeatsModule</title><polygon fill="#8dd3c7" stroke="#000" points="360.6 -84.8 357.6 -88.8 336.6 -88.8 333.6 -84.8 271.4 -84.8 271.4 -48.8 360.6 -48.8 360.6 -84.8"/><text x="316" y="-62.6" font-family="Times,serif" font-size="14" text-anchor="middle">SeatsModule</text></g><g id="edge2" class="edge"><title>SeatsModule-&gt;AppModule</title><path fill="none" stroke="#000" d="M287.64,-84.91C287.64,-84.91 287.64,-103.79 287.64,-103.79"/><polygon fill="#000" stroke="#000" points="284.14 -103.79 287.64 -113.79 291.14 -103.79 284.14 -103.79"/></g><g id="node3" class="node"><title>UsersModule</title><polygon fill="#8dd3c7" stroke="#000" points="253.92 -84.8 250.92 -88.8 229.92 -88.8 226.92 -84.8 162.08 -84.8 162.08 -48.8 253.92 -48.8 253.92 -84.8"/><text x="208" y="-62.6" font-family="Times,serif" font-size="14" text-anchor="middle">UsersModule</text></g><g id="edge3" class="edge"><title>UsersModule-&gt;AppModule</title><path fill="none" stroke="#000" d="M236.94,-84.91C236.94,-84.91 236.94,-103.79 236.94,-103.79"/><polygon fill="#000" stroke="#000" points="233.44 -103.79 236.94 -113.79 240.44 -103.79 233.44 -103.79"/></g><g id="node5" class="node"><title>AppService</title><ellipse cx="81" cy="-66.8" fill="#fdb462" stroke="#000" rx="56.74" ry="18"/><text x="81" y="-62.6" font-family="Times,serif" font-size="14" text-anchor="middle">AppService</text></g><g id="edge4" class="edge"><title>AppService-&gt;AppModule</title><path fill="none" stroke="#000" d="M81,-84.91C81,-104.14 81,-131.8 81,-131.8 81,-131.8 210.02,-131.8 210.02,-131.8"/><polygon fill="#000" stroke="#000" points="210.02 -135.3 220.02 -131.8 210.02 -128.3 210.02 -135.3"/></g></g></svg>