<?xml version="1.0" encoding="UTF-8" standalone="no"?>
<!DOCTYPE svg PUBLIC "-//W3C//DTD SVG 1.1//EN"
 "http://www.w3.org/Graphics/SVG/1.1/DTD/svg11.dtd">
<!-- Generated by graphviz version 2.47.3 (20210619.1520)
 -->
<!-- Title: dependencies Pages: 1 -->
<svg width="509pt" height="174pt"
 viewBox="0.00 0.00 509.00 173.80" xmlns="http://www.w3.org/2000/svg" xmlns:xlink="http://www.w3.org/1999/xlink">
<g id="graph0" class="graph" transform="scale(1 1) rotate(0) translate(4 169.8)">
<title>dependencies</title>
<polygon fill="white" stroke="transparent" points="-4,4 -4,-169.8 505,-169.8 505,4 -4,4"/>
<text text-anchor="middle" x="250.5" y="-8.2" font-family="sans-serif" font-size="14.00">dependencies</text>
<g id="clust1" class="cluster">
<title>cluster_AppModule</title>
<polygon fill="none" stroke="black" stroke-dasharray="1,5" points="8,-32.8 8,-157.8 493,-157.8 493,-32.8 8,-32.8"/>
</g>
<g id="clust3" class="cluster">
<title>cluster_AppModule_imports</title>
<polygon fill="none" stroke="black" points="154,-40.8 154,-92.8 485,-92.8 485,-40.8 154,-40.8"/>
</g>
<g id="clust6" class="cluster">
<title>cluster_AppModule_providers</title>
<polygon fill="none" stroke="black" points="16,-40.8 16,-92.8 146,-92.8 146,-40.8 16,-40.8"/>
</g>
<!-- FlightsModule -->
<g id="node1" class="node">
<title>FlightsModule</title>
<polygon fill="#8dd3c7" stroke="black" points="477.45,-84.8 474.45,-88.8 453.45,-88.8 450.45,-84.8 378.55,-84.8 378.55,-48.8 477.45,-48.8 477.45,-84.8"/>
<text text-anchor="middle" x="428" y="-62.6" font-family="Times,serif" font-size="14.00">FlightsModule</text>
</g>
<!-- AppModule -->
<g id="node4" class="node">
<title>AppModule</title>
<polygon fill="#8dd3c7" stroke="black" points="303.66,-149.8 300.66,-153.8 279.66,-153.8 276.66,-149.8 220.34,-149.8 220.34,-113.8 303.66,-113.8 303.66,-149.8"/>
<text text-anchor="middle" x="262" y="-127.6" font-family="Times,serif" font-size="14.00">AppModule</text>
</g>
<!-- FlightsModule&#45;&gt;AppModule -->
<g id="edge1" class="edge">
<title>FlightsModule&#45;&gt;AppModule</title>
<path fill="none" stroke="black" d="M428,-84.91C428,-104.14 428,-131.8 428,-131.8 428,-131.8 313.89,-131.8 313.89,-131.8"/>
<polygon fill="black" stroke="black" points="313.89,-128.3 303.89,-131.8 313.89,-135.3 313.89,-128.3"/>
</g>
<!-- SeatsModule -->
<g id="node2" class="node">
<title>SeatsModule</title>
<polygon fill="#8dd3c7" stroke="black" points="360.6,-84.8 357.6,-88.8 336.6,-88.8 333.6,-84.8 271.4,-84.8 271.4,-48.8 360.6,-48.8 360.6,-84.8"/>
<text text-anchor="middle" x="316" y="-62.6" font-family="Times,serif" font-size="14.00">SeatsModule</text>
</g>
<!-- SeatsModule&#45;&gt;AppModule -->
<g id="edge2" class="edge">
<title>SeatsModule&#45;&gt;AppModule</title>
<path fill="none" stroke="black" d="M287.64,-84.91C287.64,-84.91 287.64,-103.79 287.64,-103.79"/>
<polygon fill="black" stroke="black" points="284.14,-103.79 287.64,-113.79 291.14,-103.79 284.14,-103.79"/>
</g>
<!-- UsersModule -->
<g id="node3" class="node">
<title>UsersModule</title>
<polygon fill="#8dd3c7" stroke="black" points="253.92,-84.8 250.92,-88.8 229.92,-88.8 226.92,-84.8 162.08,-84.8 162.08,-48.8 253.92,-48.8 253.92,-84.8"/>
<text text-anchor="middle" x="208" y="-62.6" font-family="Times,serif" font-size="14.00">UsersModule</text>
</g>
<!-- UsersModule&#45;&gt;AppModule -->
<g id="edge3" class="edge">
<title>UsersModule&#45;&gt;AppModule</title>
<path fill="none" stroke="black" d="M236.94,-84.91C236.94,-84.91 236.94,-103.79 236.94,-103.79"/>
<polygon fill="black" stroke="black" points="233.44,-103.79 236.94,-113.79 240.44,-103.79 233.44,-103.79"/>
</g>
<!-- AppService -->
<g id="node5" class="node">
<title>AppService</title>
<ellipse fill="#fdb462" stroke="black" cx="81" cy="-66.8" rx="56.74" ry="18"/>
<text text-anchor="middle" x="81" y="-62.6" font-family="Times,serif" font-size="14.00">AppService</text>
</g>
<!-- AppService&#45;&gt;AppModule -->
<g id="edge4" class="edge">
<title>AppService&#45;&gt;AppModule</title>
<path fill="none" stroke="black" d="M81,-84.91C81,-104.14 81,-131.8 81,-131.8 81,-131.8 210.02,-131.8 210.02,-131.8"/>
<polygon fill="black" stroke="black" points="210.02,-135.3 220.02,-131.8 210.02,-128.3 210.02,-135.3"/>
</g>
</g>
</svg>
