<?xml version="1.0" encoding="UTF-8" standalone="no"?>
<!DOCTYPE svg PUBLIC "-//W3C//DTD SVG 1.1//EN"
 "http://www.w3.org/Graphics/SVG/1.1/DTD/svg11.dtd">
<!-- Generated by graphviz version 2.47.3 (20210619.1520)
 -->
<!-- Title: dependencies Pages: 1 -->
<svg width="1043pt" height="174pt"
 viewBox="0.00 0.00 1043.00 173.80" xmlns="http://www.w3.org/2000/svg" xmlns:xlink="http://www.w3.org/1999/xlink">
<g id="graph0" class="graph" transform="scale(1 1) rotate(0) translate(4 169.8)">
<title>dependencies</title>
<polygon fill="white" stroke="transparent" points="-4,4 -4,-169.8 1039,-169.8 1039,4 -4,4"/>
<text text-anchor="middle" x="517.5" y="-8.2" font-family="sans-serif" font-size="14.00">dependencies</text>
<g id="clust1" class="cluster">
<title>cluster_AppModule</title>
<polygon fill="none" stroke="black" stroke-dasharray="1,5" points="8,-32.8 8,-157.8 1027,-157.8 1027,-32.8 8,-32.8"/>
</g>
<g id="clust6" class="cluster">
<title>cluster_AppModule_providers</title>
<polygon fill="none" stroke="black" points="889,-40.8 889,-92.8 1019,-92.8 1019,-40.8 889,-40.8"/>
</g>
<g id="clust3" class="cluster">
<title>cluster_AppModule_imports</title>
<polygon fill="none" stroke="black" points="16,-40.8 16,-92.8 881,-92.8 881,-40.8 16,-40.8"/>
</g>
<!-- BookingsModule -->
<g id="node1" class="node">
<title>BookingsModule</title>
<polygon fill="#8dd3c7" stroke="black" points="872.72,-84.8 869.72,-88.8 848.72,-88.8 845.72,-84.8 759.28,-84.8 759.28,-48.8 872.72,-48.8 872.72,-84.8"/>
<text text-anchor="middle" x="816" y="-62.6" font-family="Times,serif" font-size="14.00">BookingsModule</text>
</g>
<!-- AppModule -->
<g id="node8" class="node">
<title>AppModule</title>
<polygon fill="#8dd3c7" stroke="black" points="529.66,-149.8 526.66,-153.8 505.66,-153.8 502.66,-149.8 446.34,-149.8 446.34,-113.8 529.66,-113.8 529.66,-149.8"/>
<text text-anchor="middle" x="488" y="-127.6" font-family="Times,serif" font-size="14.00">AppModule</text>
</g>
<!-- BookingsModule&#45;&gt;AppModule -->
<g id="edge1" class="edge">
<title>BookingsModule&#45;&gt;AppModule</title>
<path fill="none" stroke="black" d="M816,-84.91C816,-104.14 816,-131.8 816,-131.8 816,-131.8 539.87,-131.8 539.87,-131.8"/>
<polygon fill="black" stroke="black" points="539.87,-128.3 529.87,-131.8 539.87,-135.3 539.87,-128.3"/>
</g>
<!-- CloudinaryModule -->
<g id="node2" class="node">
<title>CloudinaryModule</title>
<polygon fill="#8dd3c7" stroke="black" points="741.04,-84.8 738.04,-88.8 717.04,-88.8 714.04,-84.8 618.96,-84.8 618.96,-48.8 741.04,-48.8 741.04,-84.8"/>
<text text-anchor="middle" x="680" y="-62.6" font-family="Times,serif" font-size="14.00">CloudinaryModule</text>
</g>
<!-- CloudinaryModule&#45;&gt;AppModule -->
<g id="edge2" class="edge">
<title>CloudinaryModule&#45;&gt;AppModule</title>
<path fill="none" stroke="black" d="M680,-84.83C680,-101.2 680,-122.8 680,-122.8 680,-122.8 539.66,-122.8 539.66,-122.8"/>
<polygon fill="black" stroke="black" points="539.66,-119.3 529.66,-122.8 539.66,-126.3 539.66,-119.3"/>
</g>
<!-- FlightsModule -->
<g id="node3" class="node">
<title>FlightsModule</title>
<polygon fill="#8dd3c7" stroke="black" points="601.45,-84.8 598.45,-88.8 577.45,-88.8 574.45,-84.8 502.55,-84.8 502.55,-48.8 601.45,-48.8 601.45,-84.8"/>
<text text-anchor="middle" x="552" y="-62.6" font-family="Times,serif" font-size="14.00">FlightsModule</text>
</g>
<!-- FlightsModule&#45;&gt;AppModule -->
<g id="edge3" class="edge">
<title>FlightsModule&#45;&gt;AppModule</title>
<path fill="none" stroke="black" d="M516.3,-84.91C516.3,-84.91 516.3,-103.79 516.3,-103.79"/>
<polygon fill="black" stroke="black" points="512.8,-103.79 516.3,-113.79 519.8,-103.79 512.8,-103.79"/>
</g>
<!-- PassengersModule -->
<g id="node4" class="node">
<title>PassengersModule</title>
<polygon fill="#8dd3c7" stroke="black" points="484.47,-84.8 481.47,-88.8 460.47,-88.8 457.47,-84.8 363.53,-84.8 363.53,-48.8 484.47,-48.8 484.47,-84.8"/>
<text text-anchor="middle" x="424" y="-62.6" font-family="Times,serif" font-size="14.00">PassengersModule</text>
</g>
<!-- PassengersModule&#45;&gt;AppModule -->
<g id="edge4" class="edge">
<title>PassengersModule&#45;&gt;AppModule</title>
<path fill="none" stroke="black" d="M465.33,-84.91C465.33,-84.91 465.33,-103.79 465.33,-103.79"/>
<polygon fill="black" stroke="black" points="461.83,-103.79 465.33,-113.79 468.83,-103.79 461.83,-103.79"/>
</g>
<!-- SeatsModule -->
<g id="node5" class="node">
<title>SeatsModule</title>
<polygon fill="#8dd3c7" stroke="black" points="345.6,-84.8 342.6,-88.8 321.6,-88.8 318.6,-84.8 256.4,-84.8 256.4,-48.8 345.6,-48.8 345.6,-84.8"/>
<text text-anchor="middle" x="301" y="-62.6" font-family="Times,serif" font-size="14.00">SeatsModule</text>
</g>
<!-- SeatsModule&#45;&gt;AppModule -->
<g id="edge5" class="edge">
<title>SeatsModule&#45;&gt;AppModule</title>
<path fill="none" stroke="black" d="M301,-84.83C301,-101.2 301,-122.8 301,-122.8 301,-122.8 436.03,-122.8 436.03,-122.8"/>
<polygon fill="black" stroke="black" points="436.03,-126.3 446.03,-122.8 436.03,-119.3 436.03,-126.3"/>
</g>
<!-- SettingsModule -->
<g id="node6" class="node">
<title>SettingsModule</title>
<polygon fill="#8dd3c7" stroke="black" points="238.16,-84.8 235.16,-88.8 214.16,-88.8 211.16,-84.8 133.84,-84.8 133.84,-48.8 238.16,-48.8 238.16,-84.8"/>
<text text-anchor="middle" x="186" y="-62.6" font-family="Times,serif" font-size="14.00">SettingsModule</text>
</g>
<!-- SettingsModule&#45;&gt;AppModule -->
<g id="edge6" class="edge">
<title>SettingsModule&#45;&gt;AppModule</title>
<path fill="none" stroke="black" d="M186,-84.91C186,-104.14 186,-131.8 186,-131.8 186,-131.8 436.33,-131.8 436.33,-131.8"/>
<polygon fill="black" stroke="black" points="436.33,-135.3 446.33,-131.8 436.33,-128.3 436.33,-135.3"/>
</g>
<!-- UsersModule -->
<g id="node7" class="node">
<title>UsersModule</title>
<polygon fill="#8dd3c7" stroke="black" points="115.92,-84.8 112.92,-88.8 91.92,-88.8 88.92,-84.8 24.08,-84.8 24.08,-48.8 115.92,-48.8 115.92,-84.8"/>
<text text-anchor="middle" x="70" y="-62.6" font-family="Times,serif" font-size="14.00">UsersModule</text>
</g>
<!-- UsersModule&#45;&gt;AppModule -->
<g id="edge7" class="edge">
<title>UsersModule&#45;&gt;AppModule</title>
<path fill="none" stroke="black" d="M70,-85.09C70,-107.01 70,-140.8 70,-140.8 70,-140.8 436.01,-140.8 436.01,-140.8"/>
<polygon fill="black" stroke="black" points="436.01,-144.3 446.01,-140.8 436.01,-137.3 436.01,-144.3"/>
</g>
<!-- AppService -->
<g id="node9" class="node">
<title>AppService</title>
<ellipse fill="#fdb462" stroke="black" cx="954" cy="-66.8" rx="56.74" ry="18"/>
<text text-anchor="middle" x="954" y="-62.6" font-family="Times,serif" font-size="14.00">AppService</text>
</g>
<!-- AppService&#45;&gt;AppModule -->
<g id="edge8" class="edge">
<title>AppService&#45;&gt;AppModule</title>
<path fill="none" stroke="black" d="M954,-85.09C954,-107.01 954,-140.8 954,-140.8 954,-140.8 539.76,-140.8 539.76,-140.8"/>
<polygon fill="black" stroke="black" points="539.76,-137.3 529.76,-140.8 539.76,-144.3 539.76,-137.3"/>
</g>
</g>
</svg>
