<svg xmlns="http://www.w3.org/2000/svg" xmlns:xlink="http://www.w3.org/1999/xlink" width="1040" height="232" viewBox="0 0 780 173.8"><g id="graph0" class="graph" transform="scale(1 1) rotate(0) translate(4 169.8)"><title>dependencies</title><polygon fill="#fff" stroke="transparent" points="-4 4 -4 -169.8 776 -169.8 776 4 -4 4"/><text x="386" y="-8.2" font-family="sans-serif" font-size="14" text-anchor="middle">dependencies</text><g id="clust1" class="cluster"><title>cluster_AppModule</title><polygon fill="none" stroke="#000" stroke-dasharray="1 5" points="8 -32.8 8 -157.8 764 -157.8 764 -32.8 8 -32.8"/></g><g id="clust3" class="cluster"><title>cluster_AppModule_imports</title><polygon fill="none" stroke="#000" points="154 -40.8 154 -92.8 756 -92.8 756 -40.8 154 -40.8"/></g><g id="clust6" class="cluster"><title>cluster_AppModule_providers</title><polygon fill="none" stroke="#000" points="16 -40.8 16 -92.8 146 -92.8 146 -40.8 16 -40.8"/></g><g id="node1" class="node"><title>BookingsModule</title><polygon fill="#8dd3c7" stroke="#000" points="747.72 -84.8 744.72 -88.8 723.72 -88.8 720.72 -84.8 634.28 -84.8 634.28 -48.8 747.72 -48.8 747.72 -84.8"/><text x="691" y="-62.6" font-family="Times,serif" font-size="14" text-anchor="middle">BookingsModule</text></g><g id="node6" class="node"><title>AppModule</title><polygon fill="#8dd3c7" stroke="#000" points="418.66 -149.8 415.66 -153.8 394.66 -153.8 391.66 -149.8 335.34 -149.8 335.34 -113.8 418.66 -113.8 418.66 -149.8"/><text x="377" y="-127.6" font-family="Times,serif" font-size="14" text-anchor="middle">AppModule</text></g><g id="edge1" class="edge"><title>BookingsModule-&gt;AppModule</title><path fill="none" stroke="#000" d="M691,-85.08C691,-106.12 691,-137.8 691,-137.8 691,-137.8 428.7,-137.8 428.7,-137.8"/><polygon fill="#000" stroke="#000" points="428.7 -134.3 418.7 -137.8 428.7 -141.3 428.7 -134.3"/></g><g id="node2" class="node"><title>FlightsModule</title><polygon fill="#8dd3c7" stroke="#000" points="616.45 -84.8 613.45 -88.8 592.45 -88.8 589.45 -84.8 517.55 -84.8 517.55 -48.8 616.45 -48.8 616.45 -84.8"/><text x="567" y="-62.6" font-family="Times,serif" font-size="14" text-anchor="middle">FlightsModule</text></g><g id="edge2" class="edge"><title>FlightsModule-&gt;AppModule</title><path fill="none" stroke="#000" d="M567,-84.82C567,-102.17 567,-125.8 567,-125.8 567,-125.8 428.7,-125.8 428.7,-125.8"/><polygon fill="#000" stroke="#000" points="428.7 -122.3 418.7 -125.8 428.7 -129.3 428.7 -122.3"/></g><g id="node3" class="node"><title>PassengersModule</title><polygon fill="#8dd3c7" stroke="#000" points="499.47 -84.8 496.47 -88.8 475.47 -88.8 472.47 -84.8 378.53 -84.8 378.53 -48.8 499.47 -48.8 499.47 -84.8"/><text x="439" y="-62.6" font-family="Times,serif" font-size="14" text-anchor="middle">PassengersModule</text></g><g id="edge3" class="edge"><title>PassengersModule-&gt;AppModule</title><path fill="none" stroke="#000" d="M398.67,-84.91C398.67,-84.91 398.67,-103.79 398.67,-103.79"/><polygon fill="#000" stroke="#000" points="395.17 -103.79 398.67 -113.79 402.17 -103.79 395.17 -103.79"/></g><g id="node4" class="node"><title>SeatsModule</title><polygon fill="#8dd3c7" stroke="#000" points="360.6 -84.8 357.6 -88.8 336.6 -88.8 333.6 -84.8 271.4 -84.8 271.4 -48.8 360.6 -48.8 360.6 -84.8"/><text x="316" y="-62.6" font-family="Times,serif" font-size="14" text-anchor="middle">SeatsModule</text></g><g id="edge4" class="edge"><title>SeatsModule-&gt;AppModule</title><path fill="none" stroke="#000" d="M347.86,-84.91C347.86,-84.91 347.86,-103.79 347.86,-103.79"/><polygon fill="#000" stroke="#000" points="344.36 -103.79 347.86 -113.79 351.36 -103.79 344.36 -103.79"/></g><g id="node5" class="node"><title>UsersModule</title><polygon fill="#8dd3c7" stroke="#000" points="253.92 -84.8 250.92 -88.8 229.92 -88.8 226.92 -84.8 162.08 -84.8 162.08 -48.8 253.92 -48.8 253.92 -84.8"/><text x="208" y="-62.6" font-family="Times,serif" font-size="14" text-anchor="middle">UsersModule</text></g><g id="edge5" class="edge"><title>UsersModule-&gt;AppModule</title><path fill="none" stroke="#000" d="M208,-84.82C208,-102.17 208,-125.8 208,-125.8 208,-125.8 325.22,-125.8 325.22,-125.8"/><polygon fill="#000" stroke="#000" points="325.22 -129.3 335.22 -125.8 325.22 -122.3 325.22 -129.3"/></g><g id="node7" class="node"><title>AppService</title><ellipse cx="81" cy="-66.8" fill="#fdb462" stroke="#000" rx="56.74" ry="18"/><text x="81" y="-62.6" font-family="Times,serif" font-size="14" text-anchor="middle">AppService</text></g><g id="edge6" class="edge"><title>AppService-&gt;AppModule</title><path fill="none" stroke="#000" d="M81,-85.08C81,-106.12 81,-137.8 81,-137.8 81,-137.8 325.22,-137.8 325.22,-137.8"/><polygon fill="#000" stroke="#000" points="325.22 -141.3 335.22 -137.8 325.22 -134.3 325.22 -141.3"/></g></g></svg>