<?xml version="1.0" encoding="UTF-8" standalone="no"?>
<!DOCTYPE svg PUBLIC "-//W3C//DTD SVG 1.1//EN"
 "http://www.w3.org/Graphics/SVG/1.1/DTD/svg11.dtd">
<!-- Generated by graphviz version 2.47.3 (20210619.1520)
 -->
<!-- Title: dependencies Pages: 1 -->
<svg width="554pt" height="250pt"
 viewBox="0.00 0.00 554.00 249.80" xmlns="http://www.w3.org/2000/svg" xmlns:xlink="http://www.w3.org/1999/xlink">
<g id="graph0" class="graph" transform="scale(1 1) rotate(0) translate(4 245.8)">
<title>dependencies</title>
<polygon fill="white" stroke="transparent" points="-4,4 -4,-245.8 550,-245.8 550,4 -4,4"/>
<text text-anchor="middle" x="273" y="-8.2" font-family="sans-serif" font-size="14.00">dependencies</text>
<g id="clust1" class="cluster">
<title>cluster_AppModule</title>
<polygon fill="none" stroke="black" stroke-dasharray="1,5" points="8,-108.8 8,-233.8 386,-233.8 386,-108.8 8,-108.8"/>
</g>
<g id="clust3" class="cluster">
<title>cluster_AppModule_imports</title>
<polygon fill="none" stroke="black" points="154,-116.8 154,-168.8 378,-168.8 378,-116.8 154,-116.8"/>
</g>
<g id="clust6" class="cluster">
<title>cluster_AppModule_providers</title>
<polygon fill="none" stroke="black" points="16,-116.8 16,-168.8 146,-168.8 146,-116.8 16,-116.8"/>
</g>
<g id="clust7" class="cluster">
<title>cluster_FlightsModule</title>
<polygon fill="none" stroke="black" stroke-dasharray="1,5" points="72,-32.8 72,-100.8 238,-100.8 238,-32.8 72,-32.8"/>
</g>
<g id="clust12" class="cluster">
<title>cluster_FlightsModule_providers</title>
<polygon fill="none" stroke="black" points="80,-40.8 80,-92.8 230,-92.8 230,-40.8 80,-40.8"/>
</g>
<g id="clust13" class="cluster">
<title>cluster_UsersModule</title>
<polygon fill="none" stroke="black" stroke-dasharray="1,5" points="246,-32.8 246,-100.8 538,-100.8 538,-32.8 246,-32.8"/>
</g>
<g id="clust18" class="cluster">
<title>cluster_UsersModule_providers</title>
<polygon fill="none" stroke="black" points="254,-40.8 254,-92.8 530,-92.8 530,-40.8 254,-40.8"/>
</g>
<!-- FlightsModule -->
<g id="node1" class="node">
<title>FlightsModule</title>
<polygon fill="#8dd3c7" stroke="black" points="260.45,-160.8 257.45,-164.8 236.45,-164.8 233.45,-160.8 161.55,-160.8 161.55,-124.8 260.45,-124.8 260.45,-160.8"/>
<text text-anchor="middle" x="211" y="-138.6" font-family="Times,serif" font-size="14.00">FlightsModule</text>
</g>
<!-- AppModule -->
<g id="node3" class="node">
<title>AppModule</title>
<polygon fill="#8dd3c7" stroke="black" points="252.66,-225.8 249.66,-229.8 228.66,-229.8 225.66,-225.8 169.34,-225.8 169.34,-189.8 252.66,-189.8 252.66,-225.8"/>
<text text-anchor="middle" x="211" y="-203.6" font-family="Times,serif" font-size="14.00">AppModule</text>
</g>
<!-- FlightsModule&#45;&gt;AppModule -->
<g id="edge1" class="edge">
<title>FlightsModule&#45;&gt;AppModule</title>
<path fill="none" stroke="black" d="M211,-160.91C211,-160.91 211,-179.79 211,-179.79"/>
<polygon fill="black" stroke="black" points="207.5,-179.79 211,-189.79 214.5,-179.79 207.5,-179.79"/>
</g>
<!-- UsersModule -->
<g id="node2" class="node">
<title>UsersModule</title>
<polygon fill="#8dd3c7" stroke="black" points="369.92,-160.8 366.92,-164.8 345.92,-164.8 342.92,-160.8 278.08,-160.8 278.08,-124.8 369.92,-124.8 369.92,-160.8"/>
<text text-anchor="middle" x="324" y="-138.6" font-family="Times,serif" font-size="14.00">UsersModule</text>
</g>
<!-- UsersModule&#45;&gt;AppModule -->
<g id="edge2" class="edge">
<title>UsersModule&#45;&gt;AppModule</title>
<path fill="none" stroke="black" d="M324,-160.91C324,-180.14 324,-207.8 324,-207.8 324,-207.8 262.76,-207.8 262.76,-207.8"/>
<polygon fill="black" stroke="black" points="262.76,-204.3 252.76,-207.8 262.76,-211.3 262.76,-204.3"/>
</g>
<!-- AppService -->
<g id="node4" class="node">
<title>AppService</title>
<ellipse fill="#fdb462" stroke="black" cx="81" cy="-142.8" rx="56.74" ry="18"/>
<text text-anchor="middle" x="81" y="-138.6" font-family="Times,serif" font-size="14.00">AppService</text>
</g>
<!-- AppService&#45;&gt;AppModule -->
<g id="edge3" class="edge">
<title>AppService&#45;&gt;AppModule</title>
<path fill="none" stroke="black" d="M81,-160.91C81,-180.14 81,-207.8 81,-207.8 81,-207.8 159.15,-207.8 159.15,-207.8"/>
<polygon fill="black" stroke="black" points="159.15,-211.3 169.15,-207.8 159.15,-204.3 159.15,-211.3"/>
</g>
<!-- FlightsService -->
<g id="node5" class="node">
<title>FlightsService</title>
<ellipse fill="#fdb462" stroke="black" cx="155" cy="-66.8" rx="66.65" ry="18"/>
<text text-anchor="middle" x="155" y="-62.6" font-family="Times,serif" font-size="14.00">FlightsService</text>
</g>
<!-- FlightsService&#45;&gt;FlightsModule -->
<g id="edge4" class="edge">
<title>FlightsService&#45;&gt;FlightsModule</title>
<path fill="none" stroke="black" d="M191.8,-82.18C191.8,-82.18 191.8,-114.77 191.8,-114.77"/>
<polygon fill="black" stroke="black" points="188.3,-114.77 191.8,-124.77 195.3,-114.77 188.3,-114.77"/>
</g>
<!-- AuthService -->
<g id="node6" class="node">
<title>AuthService</title>
<ellipse fill="#fdb462" stroke="black" cx="463" cy="-66.8" rx="59.11" ry="18"/>
<text text-anchor="middle" x="463" y="-62.6" font-family="Times,serif" font-size="14.00">AuthService</text>
</g>
<!-- AuthService&#45;&gt;UsersModule -->
<g id="edge5" class="edge">
<title>AuthService&#45;&gt;UsersModule</title>
<path fill="none" stroke="black" d="M463,-84.81C463,-107.29 463,-142.8 463,-142.8 463,-142.8 379.9,-142.8 379.9,-142.8"/>
<polygon fill="black" stroke="black" points="379.9,-139.3 369.9,-142.8 379.9,-146.3 379.9,-139.3"/>
</g>
<!-- UsersService -->
<g id="node7" class="node">
<title>UsersService</title>
<ellipse fill="#fdb462" stroke="black" cx="324" cy="-66.8" rx="61.95" ry="18"/>
<text text-anchor="middle" x="324" y="-62.6" font-family="Times,serif" font-size="14.00">UsersService</text>
</g>
<!-- UsersService&#45;&gt;UsersModule -->
<g id="edge6" class="edge">
<title>UsersService&#45;&gt;UsersModule</title>
<path fill="none" stroke="black" d="M324,-84.81C324,-84.81 324,-114.65 324,-114.65"/>
<polygon fill="black" stroke="black" points="320.5,-114.65 324,-124.65 327.5,-114.65 320.5,-114.65"/>
</g>
</g>
</svg>
