<svg xmlns="http://www.w3.org/2000/svg" xmlns:xlink="http://www.w3.org/1999/xlink" width="2096" height="391pt" viewBox="0 0 1572 390.8"><g id="graph0" class="graph" transform="scale(1 1) rotate(0) translate(4 386.8)"><title>dependencies</title><polygon fill="#fff" stroke="transparent" points="-4 4 -4 -386.8 1568 -386.8 1568 4 -4 4"/><text x="782" y="-8.2" font-family="sans-serif" font-size="14" text-anchor="middle">dependencies</text><g id="clust1" class="cluster"><title>cluster_AppModule</title><polygon fill="none" stroke="#000" stroke-dasharray="1 5" points="634 -108.8 634 -374.8 1064 -374.8 1064 -108.8 634 -108.8"/></g><g id="clust3" class="cluster"><title>cluster_AppModule_imports</title><polygon fill="none" stroke="#000" points="780 -116.8 780 -309.8 1044 -309.8 1044 -116.8 780 -116.8"/></g><g id="clust6" class="cluster"><title>cluster_AppModule_providers</title><polygon fill="none" stroke="#000" points="642 -257.8 642 -309.8 772 -309.8 772 -257.8 642 -257.8"/></g><g id="clust7" class="cluster"><title>cluster_BookingsModule</title><polygon fill="none" stroke="#000" stroke-dasharray="1 5" points="1370 -173.8 1370 -241.8 1556 -241.8 1556 -173.8 1370 -173.8"/></g><g id="clust12" class="cluster"><title>cluster_BookingsModule_providers</title><polygon fill="none" stroke="#000" points="1378 -181.8 1378 -233.8 1548 -233.8 1548 -181.8 1378 -181.8"/></g><g id="clust13" class="cluster"><title>cluster_FlightsModule</title><polygon fill="none" stroke="#000" stroke-dasharray="1 5" points="1072 -173.8 1072 -241.8 1362 -241.8 1362 -173.8 1072 -173.8"/></g><g id="clust16" class="cluster"><title>cluster_FlightsModule_exports</title><polygon fill="none" stroke="#000" points="1238 -181.8 1238 -233.8 1354 -233.8 1354 -181.8 1238 -181.8"/></g><g id="clust18" class="cluster"><title>cluster_FlightsModule_providers</title><polygon fill="none" stroke="#000" points="1080 -181.8 1080 -233.8 1230 -233.8 1230 -181.8 1080 -181.8"/></g><g id="clust19" class="cluster"><title>cluster_PassengersModule</title><polygon fill="none" stroke="#000" stroke-dasharray="1 5" points="8 -249.8 8 -317.8 350 -317.8 350 -249.8 8 -249.8"/></g><g id="clust22" class="cluster"><title>cluster_PassengersModule_exports</title><polygon fill="none" stroke="#000" points="204 -257.8 204 -309.8 342 -309.8 342 -257.8 204 -257.8"/></g><g id="clust24" class="cluster"><title>cluster_PassengersModule_providers</title><polygon fill="none" stroke="#000" points="16 -257.8 16 -309.8 196 -309.8 196 -257.8 16 -257.8"/></g><g id="clust25" class="cluster"><title>cluster_SeatsModule</title><polygon fill="none" stroke="#000" stroke-dasharray="1 5" points="358 -249.8 358 -317.8 626 -317.8 626 -249.8 358 -249.8"/></g><g id="clust28" class="cluster"><title>cluster_SeatsModule_exports</title><polygon fill="none" stroke="#000" points="510 -257.8 510 -309.8 618 -309.8 618 -257.8 510 -257.8"/></g><g id="clust30" class="cluster"><title>cluster_SeatsModule_providers</title><polygon fill="none" stroke="#000" points="366 -257.8 366 -309.8 502 -309.8 502 -257.8 366 -257.8"/></g><g id="clust31" class="cluster"><title>cluster_UsersModule</title><polygon fill="none" stroke="#000" stroke-dasharray="1 5" points="842 -32.8 842 -100.8 1134 -100.8 1134 -32.8 842 -32.8"/></g><g id="clust36" class="cluster"><title>cluster_UsersModule_providers</title><polygon fill="none" stroke="#000" points="850 -40.8 850 -92.8 1126 -92.8 1126 -40.8 850 -40.8"/></g><g id="node1" class="node"><title>BookingsModule</title><polygon fill="#8dd3c7" stroke="#000" points="1027.72 -301.8 1024.72 -305.8 1003.72 -305.8 1000.72 -301.8 914.28 -301.8 914.28 -265.8 1027.72 -265.8 1027.72 -301.8"/><text x="971" y="-279.6" font-family="Times,serif" font-size="14" text-anchor="middle">BookingsModule</text></g><g id="node6" class="node"><title>AppModule</title><polygon fill="#8dd3c7" stroke="#000" points="909.66 -366.8 906.66 -370.8 885.66 -370.8 882.66 -366.8 826.34 -366.8 826.34 -330.8 909.66 -330.8 909.66 -366.8"/><text x="868" y="-344.6" font-family="Times,serif" font-size="14" text-anchor="middle">AppModule</text></g><g id="edge1" class="edge"><title>BookingsModule-&gt;AppModule</title><path fill="none" stroke="#000" d="M914,-289.8C902.97,-289.8 894.77,-289.8 894.77,-289.8 894.77,-289.8 894.77,-320.78 894.77,-320.78"/><polygon fill="#000" stroke="#000" points="891.27 -320.78 894.77 -330.78 898.27 -320.78 891.27 -320.78"/></g><g id="node2" class="node"><title>FlightsModule</title><polygon fill="#8dd3c7" stroke="#000" points="926.45 -160.8 923.45 -164.8 902.45 -164.8 899.45 -160.8 827.55 -160.8 827.55 -124.8 926.45 -124.8 926.45 -160.8"/><text x="877" y="-138.6" font-family="Times,serif" font-size="14" text-anchor="middle">FlightsModule</text></g><g id="edge7" class="edge"><title>FlightsModule-&gt;BookingsModule</title><path fill="none" stroke="#000" d="M922.84,-160.94C922.84,-160.94 922.84,-255.73 922.84,-255.73"/><polygon fill="#000" stroke="#000" points="919.34 -255.72 922.84 -265.73 926.34 -255.73 919.34 -255.72"/></g><g id="node4" class="node"><title>SeatsModule</title><polygon fill="#8dd3c7" stroke="#000" points="1015.6 -225.8 1012.6 -229.8 991.6 -229.8 988.6 -225.8 926.4 -225.8 926.4 -189.8 1015.6 -189.8 1015.6 -225.8"/><text x="971" y="-203.6" font-family="Times,serif" font-size="14" text-anchor="middle">SeatsModule</text></g><g id="edge15" class="edge"><title>FlightsModule-&gt;SeatsModule</title><path fill="none" stroke="#000" d="M924.53,-160.82C924.53,-178.17 924.53,-201.8 924.53,-201.8 924.53,-201.8 924.69,-201.8 924.69,-201.8"/><polygon fill="#000" stroke="#000" points="916.08 -205.3 926.08 -201.8 916.08 -198.3 916.08 -205.3"/></g><g id="edge2" class="edge"><title>FlightsModule-&gt;AppModule</title><path fill="none" stroke="#000" d="M921.15,-160.95C921.15,-191.48 921.15,-249.8 921.15,-249.8 921.15,-249.8 867.33,-249.8 867.33,-249.8 867.33,-249.8 867.33,-320.64 867.33,-320.64"/><polygon fill="#000" stroke="#000" points="863.83 -320.64 867.33 -330.64 870.83 -320.64 863.83 -320.64"/></g><g id="node9" class="node"><title>FlightsService</title><polygon fill="#fb8072" stroke="#000" points="1346.38 -225.8 1245.62 -225.8 1245.62 -189.8 1346.38 -189.8 1346.38 -225.8"/><text x="1296" y="-203.6" font-family="Times,serif" font-size="14" text-anchor="middle">FlightsService</text></g><g id="edge11" class="edge"><title>FlightsModule-&gt;FlightsService</title><path fill="none" stroke="#000" stroke-dasharray="5 2" d="M916.08,-161.01C916.08,-166.35 916.08,-170.8 916.08,-170.8 916.08,-170.8 1296,-170.8 1296,-170.8 1296,-170.8 1296,-179.73 1296,-179.73"/><polygon fill="#000" stroke="#000" points="1292.5 -179.73 1296 -189.73 1299.5 -179.73 1292.5 -179.73"/></g><g id="node3" class="node"><title>PassengersModule</title><polygon fill="#8dd3c7" stroke="#000" points="908.47 -225.8 905.47 -229.8 884.47 -229.8 881.47 -225.8 787.53 -225.8 787.53 -189.8 908.47 -189.8 908.47 -225.8"/><text x="848" y="-203.6" font-family="Times,serif" font-size="14" text-anchor="middle">PassengersModule</text></g><g id="edge8" class="edge"><title>PassengersModule-&gt;BookingsModule</title><path fill="none" stroke="#000" d="M908.61,-213.8C915.13,-213.8 919.46,-213.8 919.46,-213.8 919.46,-213.8 919.46,-255.77 919.46,-255.77"/><polygon fill="#000" stroke="#000" points="915.96 -255.77 919.46 -265.77 922.96 -255.77 915.96 -255.77"/></g><g id="edge3" class="edge"><title>PassengersModule-&gt;AppModule</title><path fill="none" stroke="#000" d="M853.61,-225.94C853.61,-225.94 853.61,-320.73 853.61,-320.73"/><polygon fill="#000" stroke="#000" points="850.11 -320.72 853.61 -330.73 857.11 -320.73 850.11 -320.72"/></g><g id="node11" class="node"><title>PassengersService</title><polygon fill="#fb8072" stroke="#000" points="334.4 -301.8 211.6 -301.8 211.6 -265.8 334.4 -265.8 334.4 -301.8"/><text x="273" y="-279.6" font-family="Times,serif" font-size="14" text-anchor="middle">PassengersService</text></g><g id="edge13" class="edge"><title>PassengersModule-&gt;PassengersService</title><path fill="none" stroke="#000" stroke-dasharray="5 2" d="M787.28,-213.8C639.47,-213.8 273,-213.8 273,-213.8 273,-213.8 273,-255.77 273,-255.77"/><polygon fill="#000" stroke="#000" points="269.5 -255.77 273 -265.77 276.5 -255.77 269.5 -255.77"/></g><g id="edge9" class="edge"><title>SeatsModule-&gt;BookingsModule</title><path fill="none" stroke="#000" d="M997.73,-225.81C997.73,-225.81 997.73,-255.65 997.73,-255.65"/><polygon fill="#000" stroke="#000" points="994.23 -255.65 997.73 -265.65 1001.23 -255.65 994.23 -255.65"/></g><g id="edge4" class="edge"><title>SeatsModule-&gt;AppModule</title><path fill="none" stroke="#000" d="M979.91,-225.85C979.91,-240.17 979.91,-257.8 979.91,-257.8 979.91,-257.8 881.05,-257.8 881.05,-257.8 881.05,-257.8 881.05,-320.38 881.05,-320.38"/><polygon fill="#000" stroke="#000" points="877.55 -320.38 881.05 -330.38 884.55 -320.38 877.55 -320.38"/></g><g id="node13" class="node"><title>SeatsService</title><polygon fill="#fb8072" stroke="#000" points="609.52 -301.8 518.48 -301.8 518.48 -265.8 609.52 -265.8 609.52 -301.8"/><text x="564" y="-279.6" font-family="Times,serif" font-size="14" text-anchor="middle">SeatsService</text></g><g id="edge16" class="edge"><title>SeatsModule-&gt;SeatsService</title><path fill="none" stroke="#000" stroke-dasharray="5 2" d="M962.09,-225.99C962.09,-234.08 962.09,-241.8 962.09,-241.8 962.09,-241.8 564,-241.8 564,-241.8 564,-241.8 564,-255.74 564,-255.74"/><polygon fill="#000" stroke="#000" points="560.5 -255.74 564 -265.74 567.5 -255.74 560.5 -255.74"/></g><g id="node5" class="node"><title>UsersModule</title><polygon fill="#8dd3c7" stroke="#000" points="1035.92 -160.8 1032.92 -164.8 1011.92 -164.8 1008.92 -160.8 944.08 -160.8 944.08 -124.8 1035.92 -124.8 1035.92 -160.8"/><text x="990" y="-138.6" font-family="Times,serif" font-size="14" text-anchor="middle">UsersModule</text></g><g id="edge5" class="edge"><title>UsersModule-&gt;AppModule</title><path fill="none" stroke="#000" d="M1031.66,-161.08C1031.66,-211.5 1031.66,-348.8 1031.66,-348.8 1031.66,-348.8 919.72,-348.8 919.72,-348.8"/><polygon fill="#000" stroke="#000" points="919.72 -345.3 909.72 -348.8 919.72 -352.3 919.72 -345.3"/></g><g id="node7" class="node"><title>AppService</title><ellipse cx="707" cy="-283.8" fill="#fdb462" stroke="#000" rx="56.74" ry="18"/><text x="707" y="-279.6" font-family="Times,serif" font-size="14" text-anchor="middle">AppService</text></g><g id="edge6" class="edge"><title>AppService-&gt;AppModule</title><path fill="none" stroke="#000" d="M760.67,-277.8C797.55,-277.8 839.89,-277.8 839.89,-277.8 839.89,-277.8 839.89,-320.52 839.89,-320.52"/><polygon fill="#000" stroke="#000" points="836.39 -320.52 839.89 -330.52 843.39 -320.52 836.39 -320.52"/></g><g id="node8" class="node"><title>BookingsService</title><ellipse cx="1463" cy="-207.8" fill="#fdb462" stroke="#000" rx="77.03" ry="18"/><text x="1463" y="-203.6" font-family="Times,serif" font-size="14" text-anchor="middle">BookingsService</text></g><g id="edge10" class="edge"><title>BookingsService-&gt;BookingsModule</title><path fill="none" stroke="#000" d="M1463,-225.81C1463,-248.29 1463,-283.8 1463,-283.8 1463,-283.8 1037.92,-283.8 1037.92,-283.8"/><polygon fill="#000" stroke="#000" points="1037.92 -280.3 1027.92 -283.8 1037.92 -287.3 1037.92 -280.3"/></g><g id="node10" class="node"><title>FlightsService</title><ellipse cx="1155" cy="-207.8" fill="#fdb462" stroke="#000" rx="66.65" ry="18"/><text x="1155" y="-203.6" font-family="Times,serif" font-size="14" text-anchor="middle">FlightsService</text></g><g id="edge12" class="edge"><title>FlightsService-&gt;FlightsModule</title><path fill="none" stroke="#000" d="M1103.24,-196.19C1103.24,-188.87 1103.24,-180.8 1103.24,-180.8 1103.24,-180.8 917.77,-180.8 917.77,-180.8 917.77,-180.8 917.77,-170.91 917.77,-170.91"/><polygon fill="#000" stroke="#000" points="921.27 -170.91 917.77 -160.91 914.27 -170.91 921.27 -170.91"/></g><g id="node12" class="node"><title>PassengersService</title><ellipse cx="106" cy="-283.8" fill="#fdb462" stroke="#000" rx="82.22" ry="18"/><text x="106" y="-279.6" font-family="Times,serif" font-size="14" text-anchor="middle">PassengersService</text></g><g id="edge14" class="edge"><title>PassengersService-&gt;PassengersModule</title><path fill="none" stroke="#000" d="M106,-265.6C106,-241.44 106,-201.8 106,-201.8 106,-201.8 777.28,-201.8 777.28,-201.8"/><polygon fill="#000" stroke="#000" points="777.28 -205.3 787.28 -201.8 777.28 -198.3 777.28 -205.3"/></g><g id="node14" class="node"><title>SeatsService</title><ellipse cx="434" cy="-283.8" fill="#fdb462" stroke="#000" rx="60.25" ry="18"/><text x="434" y="-279.6" font-family="Times,serif" font-size="14" text-anchor="middle">SeatsService</text></g><g id="edge17" class="edge"><title>SeatsService-&gt;SeatsModule</title><path fill="none" stroke="#000" d="M434,-265.75C434,-251.43 434,-233.8 434,-233.8 434,-233.8 944.27,-233.8 944.27,-233.8 944.27,-233.8 944.27,-233.01 944.27,-233.01"/><polygon fill="#000" stroke="#000" points="947.77 -235.86 944.27 -225.86 940.77 -235.86 947.77 -235.86"/></g><g id="node15" class="node"><title>AuthService</title><ellipse cx="1059" cy="-66.8" fill="#fdb462" stroke="#000" rx="59.11" ry="18"/><text x="1059" y="-62.6" font-family="Times,serif" font-size="14" text-anchor="middle">AuthService</text></g><g id="edge18" class="edge"><title>AuthService-&gt;UsersModule</title><path fill="none" stroke="#000" d="M1017.7,-80.04C1017.7,-80.04 1017.7,-114.59 1017.7,-114.59"/><polygon fill="#000" stroke="#000" points="1014.2 -114.59 1017.7 -124.59 1021.2 -114.59 1014.2 -114.59"/></g><g id="node16" class="node"><title>UsersService</title><ellipse cx="920" cy="-66.8" fill="#fdb462" stroke="#000" rx="61.95" ry="18"/><text x="920" y="-62.6" font-family="Times,serif" font-size="14" text-anchor="middle">UsersService</text></g><g id="edge19" class="edge"><title>UsersService-&gt;UsersModule</title><path fill="none" stroke="#000" d="M963.13,-80.04C963.13,-80.04 963.13,-114.59 963.13,-114.59"/><polygon fill="#000" stroke="#000" points="959.63 -114.59 963.13 -124.59 966.63 -114.59 959.63 -114.59"/></g></g></svg>