<svg xmlns="http://www.w3.org/2000/svg" xmlns:xlink="http://www.w3.org/1999/xlink" width="860pt" height="326pt" viewBox="0 0 860 325.8"><g id="graph0" class="graph" transform="scale(1 1) rotate(0) translate(4 321.8)"><title>dependencies</title><polygon fill="#fff" stroke="transparent" points="-4 4 -4 -321.8 856 -321.8 856 4 -4 4"/><text x="426" y="-8.2" font-family="sans-serif" font-size="14" text-anchor="middle">dependencies</text><g id="clust1" class="cluster"><title>cluster_AppModule</title><polygon fill="none" stroke="#000" stroke-dasharray="1 5" points="168 -108.8 168 -309.8 546 -309.8 546 -108.8 168 -108.8"/></g><g id="clust3" class="cluster"><title>cluster_AppModule_imports</title><polygon fill="none" stroke="#000" points="314 -116.8 314 -244.8 538 -244.8 538 -116.8 314 -116.8"/></g><g id="clust6" class="cluster"><title>cluster_AppModule_providers</title><polygon fill="none" stroke="#000" points="176 -192.8 176 -244.8 306 -244.8 306 -192.8 176 -192.8"/></g><g id="clust7" class="cluster"><title>cluster_FlightsModule</title><polygon fill="none" stroke="#000" stroke-dasharray="1 5" points="554 -184.8 554 -252.8 844 -252.8 844 -184.8 554 -184.8"/></g><g id="clust10" class="cluster"><title>cluster_FlightsModule_exports</title><polygon fill="none" stroke="#000" points="720 -192.8 720 -244.8 836 -244.8 836 -192.8 720 -192.8"/></g><g id="clust12" class="cluster"><title>cluster_FlightsModule_providers</title><polygon fill="none" stroke="#000" points="562 -192.8 562 -244.8 712 -244.8 712 -192.8 562 -192.8"/></g><g id="clust13" class="cluster"><title>cluster_SeatsModule</title><polygon fill="none" stroke="#000" stroke-dasharray="1 5" points="8 -108.8 8 -176.8 160 -176.8 160 -108.8 8 -108.8"/></g><g id="clust18" class="cluster"><title>cluster_SeatsModule_providers</title><polygon fill="none" stroke="#000" points="16 -116.8 16 -168.8 152 -168.8 152 -116.8 16 -116.8"/></g><g id="clust19" class="cluster"><title>cluster_UsersModule</title><polygon fill="none" stroke="#000" stroke-dasharray="1 5" points="220 -32.8 220 -100.8 512 -100.8 512 -32.8 220 -32.8"/></g><g id="clust24" class="cluster"><title>cluster_UsersModule_providers</title><polygon fill="none" stroke="#000" points="228 -40.8 228 -92.8 504 -92.8 504 -40.8 228 -40.8"/></g><g id="node1" class="node"><title>FlightsModule</title><polygon fill="#8dd3c7" stroke="#000" points="530.45 -160.8 527.45 -164.8 506.45 -164.8 503.45 -160.8 431.55 -160.8 431.55 -124.8 530.45 -124.8 530.45 -160.8"/><text x="481" y="-138.6" font-family="Times,serif" font-size="14" text-anchor="middle">FlightsModule</text></g><g id="node2" class="node"><title>SeatsModule</title><polygon fill="#8dd3c7" stroke="#000" points="411.6 -236.8 408.6 -240.8 387.6 -240.8 384.6 -236.8 322.4 -236.8 322.4 -200.8 411.6 -200.8 411.6 -236.8"/><text x="367" y="-214.6" font-family="Times,serif" font-size="14" text-anchor="middle">SeatsModule</text></g><g id="edge7" class="edge"><title>FlightsModule-&gt;SeatsModule</title><path fill="none" stroke="#000" d="M434.79,-161C434.79,-185.16 434.79,-224.8 434.79,-224.8 434.79,-224.8 421.84,-224.8 421.84,-224.8"/><polygon fill="#000" stroke="#000" points="421.84 -221.3 411.84 -224.8 421.84 -228.3 421.84 -221.3"/></g><g id="node4" class="node"><title>AppModule</title><polygon fill="#8dd3c7" stroke="#000" points="440.66 -301.8 437.66 -305.8 416.66 -305.8 413.66 -301.8 357.34 -301.8 357.34 -265.8 440.66 -265.8 440.66 -301.8"/><text x="399" y="-279.6" font-family="Times,serif" font-size="14" text-anchor="middle">AppModule</text></g><g id="edge1" class="edge"><title>FlightsModule-&gt;AppModule</title><path fill="none" stroke="#000" d="M437.81,-160.94C437.81,-160.94 437.81,-255.73 437.81,-255.73"/><polygon fill="#000" stroke="#000" points="434.31 -255.72 437.81 -265.73 441.31 -255.73 434.31 -255.72"/></g><g id="node6" class="node"><title>FlightsService</title><polygon fill="#fb8072" stroke="#000" points="828.38 -236.8 727.62 -236.8 727.62 -200.8 828.38 -200.8 828.38 -236.8"/><text x="778" y="-214.6" font-family="Times,serif" font-size="14" text-anchor="middle">FlightsService</text></g><g id="edge5" class="edge"><title>FlightsModule-&gt;FlightsService</title><path fill="none" stroke="#000" stroke-dasharray="5 2" d="M530.38,-142.8C614.83,-142.8 778,-142.8 778,-142.8 778,-142.8 778,-190.79 778,-190.79"/><polygon fill="#000" stroke="#000" points="774.5 -190.79 778 -200.79 781.5 -190.79 774.5 -190.79"/></g><g id="edge2" class="edge"><title>SeatsModule-&gt;AppModule</title><path fill="none" stroke="#000" d="M384.36,-236.91C384.36,-236.91 384.36,-255.79 384.36,-255.79"/><polygon fill="#000" stroke="#000" points="380.86 -255.79 384.36 -265.79 387.86 -255.79 380.86 -255.79"/></g><g id="node3" class="node"><title>UsersModule</title><polygon fill="#8dd3c7" stroke="#000" points="413.92 -160.8 410.92 -164.8 389.92 -164.8 386.92 -160.8 322.08 -160.8 322.08 -124.8 413.92 -124.8 413.92 -160.8"/><text x="368" y="-138.6" font-family="Times,serif" font-size="14" text-anchor="middle">UsersModule</text></g><g id="edge3" class="edge"><title>UsersModule-&gt;AppModule</title><path fill="none" stroke="#000" d="M414.19,-142.8C419.32,-142.8 422.74,-142.8 422.74,-142.8 422.74,-142.8 422.74,-255.66 422.74,-255.66"/><polygon fill="#000" stroke="#000" points="419.24 -255.66 422.74 -265.66 426.24 -255.66 419.24 -255.66"/></g><g id="node5" class="node"><title>AppService</title><ellipse cx="241" cy="-218.8" fill="#fdb462" stroke="#000" rx="56.74" ry="18"/><text x="241" y="-214.6" font-family="Times,serif" font-size="14" text-anchor="middle">AppService</text></g><g id="edge4" class="edge"><title>AppService-&gt;AppModule</title><path fill="none" stroke="#000" d="M241,-236.91C241,-256.14 241,-283.8 241,-283.8 241,-283.8 347.07,-283.8 347.07,-283.8"/><polygon fill="#000" stroke="#000" points="347.07 -287.3 357.07 -283.8 347.07 -280.3 347.07 -287.3"/></g><g id="node7" class="node"><title>FlightsService</title><ellipse cx="637" cy="-218.8" fill="#fdb462" stroke="#000" rx="66.65" ry="18"/><text x="637" y="-214.6" font-family="Times,serif" font-size="14" text-anchor="middle">FlightsService</text></g><g id="edge6" class="edge"><title>FlightsService-&gt;FlightsModule</title><path fill="none" stroke="#000" d="M573.64,-212.8C532.13,-212.8 485.53,-212.8 485.53,-212.8 485.53,-212.8 485.53,-170.83 485.53,-170.83"/><polygon fill="#000" stroke="#000" points="489.03 -170.83 485.53 -160.83 482.03 -170.83 489.03 -170.83"/></g><g id="node8" class="node"><title>SeatsService</title><ellipse cx="84" cy="-142.8" fill="#fdb462" stroke="#000" rx="60.25" ry="18"/><text x="84" y="-138.6" font-family="Times,serif" font-size="14" text-anchor="middle">SeatsService</text></g><g id="edge8" class="edge"><title>SeatsService-&gt;SeatsModule</title><path fill="none" stroke="#000" d="M144.55,-142.8C211.48,-142.8 309.95,-142.8 309.95,-142.8 309.95,-142.8 309.95,-218.8 309.95,-218.8 309.95,-218.8 312.33,-218.8 312.33,-218.8"/><polygon fill="#000" stroke="#000" points="312.33 -222.3 322.33 -218.8 312.33 -215.3 312.33 -222.3"/></g><g id="node9" class="node"><title>AuthService</title><ellipse cx="437" cy="-66.8" fill="#fdb462" stroke="#000" rx="59.11" ry="18"/><text x="437" y="-62.6" font-family="Times,serif" font-size="14" text-anchor="middle">AuthService</text></g><g id="edge9" class="edge"><title>AuthService-&gt;UsersModule</title><path fill="none" stroke="#000" d="M395.7,-80.04C395.7,-80.04 395.7,-114.59 395.7,-114.59"/><polygon fill="#000" stroke="#000" points="392.2 -114.59 395.7 -124.59 399.2 -114.59 392.2 -114.59"/></g><g id="node10" class="node"><title>UsersService</title><ellipse cx="298" cy="-66.8" fill="#fdb462" stroke="#000" rx="61.95" ry="18"/><text x="298" y="-62.6" font-family="Times,serif" font-size="14" text-anchor="middle">UsersService</text></g><g id="edge10" class="edge"><title>UsersService-&gt;UsersModule</title><path fill="none" stroke="#000" d="M341.13,-80.04C341.13,-80.04 341.13,-114.59 341.13,-114.59"/><polygon fill="#000" stroke="#000" points="337.63 -114.59 341.13 -124.59 344.63 -114.59 337.63 -114.59"/></g></g></svg>