<?xml version="1.0" encoding="UTF-8" standalone="no"?>
<!DOCTYPE svg PUBLIC "-//W3C//DTD SVG 1.1//EN"
 "http://www.w3.org/Graphics/SVG/1.1/DTD/svg11.dtd">
<!-- Generated by graphviz version 2.47.3 (20210619.1520)
 -->
<!-- Title: dependencies Pages: 1 -->
<svg width="1439pt" height="410pt"
 viewBox="0.00 0.00 1439.00 409.80" xmlns="http://www.w3.org/2000/svg" xmlns:xlink="http://www.w3.org/1999/xlink">
<g id="graph0" class="graph" transform="scale(1 1) rotate(0) translate(4 405.8)">
<title>dependencies</title>
<polygon fill="white" stroke="transparent" points="-4,4 -4,-405.8 1435,-405.8 1435,4 -4,4"/>
<text text-anchor="middle" x="715.5" y="-8.2" font-family="sans-serif" font-size="14.00">dependencies</text>
<g id="clust1" class="cluster">
<title>cluster_AppModule</title>
<polygon fill="none" stroke="black" stroke-dasharray="1,5" points="123,-108.8 123,-385.8 797,-385.8 797,-108.8 123,-108.8"/>
</g>
<g id="clust3" class="cluster">
<title>cluster_AppModule_imports</title>
<polygon fill="none" stroke="black" points="301,-116.8 301,-309.8 789,-309.8 789,-116.8 301,-116.8"/>
</g>
<g id="clust6" class="cluster">
<title>cluster_AppModule_providers</title>
<polygon fill="none" stroke="black" points="163,-257.8 163,-309.8 293,-309.8 293,-257.8 163,-257.8"/>
</g>
<g id="clust7" class="cluster">
<title>cluster_BookingsModule</title>
<polygon fill="none" stroke="black" stroke-dasharray="1,5" points="805,-325.8 805,-393.8 1131,-393.8 1131,-325.8 805,-325.8"/>
</g>
<g id="clust10" class="cluster">
<title>cluster_BookingsModule_exports</title>
<polygon fill="none" stroke="black" points="991,-333.8 991,-385.8 1123,-385.8 1123,-333.8 991,-333.8"/>
</g>
<g id="clust12" class="cluster">
<title>cluster_BookingsModule_providers</title>
<polygon fill="none" stroke="black" points="813,-333.8 813,-385.8 983,-385.8 983,-333.8 813,-333.8"/>
</g>
<g id="clust13" class="cluster">
<title>cluster_CloudinaryModule</title>
<polygon fill="none" stroke="black" stroke-dasharray="1,5" points="426,-32.8 426,-100.8 624,-100.8 624,-32.8 426,-32.8"/>
</g>
<g id="clust18" class="cluster">
<title>cluster_CloudinaryModule_providers</title>
<polygon fill="none" stroke="black" points="434,-40.8 434,-92.8 616,-92.8 616,-40.8 434,-40.8"/>
</g>
<g id="clust19" class="cluster">
<title>cluster_FlightsModule</title>
<polygon fill="none" stroke="black" stroke-dasharray="1,5" points="805,-173.8 805,-241.8 1095,-241.8 1095,-173.8 805,-173.8"/>
</g>
<g id="clust22" class="cluster">
<title>cluster_FlightsModule_exports</title>
<polygon fill="none" stroke="black" points="971,-181.8 971,-233.8 1087,-233.8 1087,-181.8 971,-181.8"/>
</g>
<g id="clust24" class="cluster">
<title>cluster_FlightsModule_providers</title>
<polygon fill="none" stroke="black" points="813,-181.8 813,-233.8 963,-233.8 963,-181.8 813,-181.8"/>
</g>
<g id="clust25" class="cluster">
<title>cluster_PassengersModule</title>
<polygon fill="none" stroke="black" stroke-dasharray="1,5" points="805,-249.8 805,-317.8 1147,-317.8 1147,-249.8 805,-249.8"/>
</g>
<g id="clust28" class="cluster">
<title>cluster_PassengersModule_exports</title>
<polygon fill="none" stroke="black" points="1001,-257.8 1001,-309.8 1139,-309.8 1139,-257.8 1001,-257.8"/>
</g>
<g id="clust30" class="cluster">
<title>cluster_PassengersModule_providers</title>
<polygon fill="none" stroke="black" points="813,-257.8 813,-309.8 993,-309.8 993,-257.8 813,-257.8"/>
</g>
<g id="clust31" class="cluster">
<title>cluster_SeatsModule</title>
<polygon fill="none" stroke="black" stroke-dasharray="1,5" points="1155,-249.8 1155,-317.8 1423,-317.8 1423,-249.8 1155,-249.8"/>
</g>
<g id="clust34" class="cluster">
<title>cluster_SeatsModule_exports</title>
<polygon fill="none" stroke="black" points="1307,-257.8 1307,-309.8 1415,-309.8 1415,-257.8 1307,-257.8"/>
</g>
<g id="clust36" class="cluster">
<title>cluster_SeatsModule_providers</title>
<polygon fill="none" stroke="black" points="1163,-257.8 1163,-309.8 1299,-309.8 1299,-257.8 1163,-257.8"/>
</g>
<g id="clust37" class="cluster">
<title>cluster_SettingsModule</title>
<polygon fill="none" stroke="black" stroke-dasharray="1,5" points="632,-32.8 632,-100.8 806,-100.8 806,-32.8 632,-32.8"/>
</g>
<g id="clust42" class="cluster">
<title>cluster_SettingsModule_providers</title>
<polygon fill="none" stroke="black" points="640,-40.8 640,-92.8 798,-92.8 798,-40.8 640,-40.8"/>
</g>
<g id="clust43" class="cluster">
<title>cluster_UsersModule</title>
<polygon fill="none" stroke="black" stroke-dasharray="1,5" points="8,-32.8 8,-100.8 418,-100.8 418,-32.8 8,-32.8"/>
</g>
<g id="clust46" class="cluster">
<title>cluster_UsersModule_exports</title>
<polygon fill="none" stroke="black" points="300,-40.8 300,-92.8 410,-92.8 410,-40.8 300,-40.8"/>
</g>
<g id="clust48" class="cluster">
<title>cluster_UsersModule_providers</title>
<polygon fill="none" stroke="black" points="16,-40.8 16,-92.8 292,-92.8 292,-40.8 16,-40.8"/>
</g>
<!-- BookingsModule -->
<g id="node1" class="node">
<title>BookingsModule</title>
<polygon fill="#8dd3c7" stroke="black" points="724.72,-301.8 721.72,-305.8 700.72,-305.8 697.72,-301.8 611.28,-301.8 611.28,-265.8 724.72,-265.8 724.72,-301.8"/>
<text text-anchor="middle" x="668" y="-279.6" font-family="Times,serif" font-size="14.00">BookingsModule</text>
</g>
<!-- AppModule -->
<g id="node8" class="node">
<title>AppModule</title>
<polygon fill="#8dd3c7" stroke="black" points="355.66,-377.8 352.66,-381.8 331.66,-381.8 328.66,-377.8 272.34,-377.8 272.34,-341.8 355.66,-341.8 355.66,-377.8"/>
<text text-anchor="middle" x="314" y="-355.6" font-family="Times,serif" font-size="14.00">AppModule</text>
</g>
<!-- BookingsModule&#45;&gt;AppModule -->
<g id="edge1" class="edge">
<title>BookingsModule&#45;&gt;AppModule</title>
<path fill="none" stroke="black" d="M611.27,-283.8C518.98,-283.8 346.52,-283.8 346.52,-283.8 346.52,-283.8 346.52,-331.79 346.52,-331.79"/>
<polygon fill="black" stroke="black" points="343.02,-331.79 346.52,-341.79 350.02,-331.79 343.02,-331.79"/>
</g>
<!-- BookingsService  -->
<g id="node10" class="node">
<title>BookingsService </title>
<polygon fill="#fb8072" stroke="black" points="1114.65,-377.8 999.35,-377.8 999.35,-341.8 1114.65,-341.8 1114.65,-377.8"/>
<text text-anchor="middle" x="1057" y="-355.6" font-family="Times,serif" font-size="14.00">BookingsService </text>
</g>
<!-- BookingsModule&#45;&gt;BookingsService  -->
<g id="edge12" class="edge">
<title>BookingsModule&#45;&gt;BookingsService </title>
<path fill="none" stroke="black" stroke-dasharray="5,2" d="M649.13,-301.91C649.13,-311.7 649.13,-321.8 649.13,-321.8 649.13,-321.8 1003.99,-321.8 1003.99,-321.8 1003.99,-321.8 1003.99,-331.69 1003.99,-331.69"/>
<polygon fill="black" stroke="black" points="1000.49,-331.69 1003.99,-341.69 1007.49,-331.69 1000.49,-331.69"/>
</g>
<!-- CloudinaryModule -->
<g id="node2" class="node">
<title>CloudinaryModule</title>
<polygon fill="#8dd3c7" stroke="black" points="541.04,-160.8 538.04,-164.8 517.04,-164.8 514.04,-160.8 418.96,-160.8 418.96,-124.8 541.04,-124.8 541.04,-160.8"/>
<text text-anchor="middle" x="480" y="-138.6" font-family="Times,serif" font-size="14.00">CloudinaryModule</text>
</g>
<!-- CloudinaryModule&#45;&gt;AppModule -->
<g id="edge2" class="edge">
<title>CloudinaryModule&#45;&gt;AppModule</title>
<path fill="none" stroke="black" d="M480,-160.81C480,-211.17 480,-349.8 480,-349.8 480,-349.8 365.89,-349.8 365.89,-349.8"/>
<polygon fill="black" stroke="black" points="365.89,-346.3 355.89,-349.8 365.89,-353.3 365.89,-346.3"/>
</g>
<!-- FlightsModule -->
<g id="node3" class="node">
<title>FlightsModule</title>
<polygon fill="#8dd3c7" stroke="black" points="781.45,-160.8 778.45,-164.8 757.45,-164.8 754.45,-160.8 682.55,-160.8 682.55,-124.8 781.45,-124.8 781.45,-160.8"/>
<text text-anchor="middle" x="732" y="-138.6" font-family="Times,serif" font-size="14.00">FlightsModule</text>
</g>
<!-- FlightsModule&#45;&gt;BookingsModule -->
<g id="edge9" class="edge">
<title>FlightsModule&#45;&gt;BookingsModule</title>
<path fill="none" stroke="black" d="M688.56,-160.94C688.56,-160.94 688.56,-255.73 688.56,-255.73"/>
<polygon fill="black" stroke="black" points="685.06,-255.72 688.56,-265.73 692.06,-255.73 685.06,-255.72"/>
</g>
<!-- SeatsModule -->
<g id="node5" class="node">
<title>SeatsModule</title>
<polygon fill="#8dd3c7" stroke="black" points="780.6,-225.8 777.6,-229.8 756.6,-229.8 753.6,-225.8 691.4,-225.8 691.4,-189.8 780.6,-189.8 780.6,-225.8"/>
<text text-anchor="middle" x="736" y="-203.6" font-family="Times,serif" font-size="14.00">SeatsModule</text>
</g>
<!-- FlightsModule&#45;&gt;SeatsModule -->
<g id="edge19" class="edge">
<title>FlightsModule&#45;&gt;SeatsModule</title>
<path fill="none" stroke="black" d="M736,-160.91C736,-160.91 736,-179.79 736,-179.79"/>
<polygon fill="black" stroke="black" points="732.5,-179.79 736,-189.79 739.5,-179.79 732.5,-179.79"/>
</g>
<!-- FlightsModule&#45;&gt;AppModule -->
<g id="edge3" class="edge">
<title>FlightsModule&#45;&gt;AppModule</title>
<path fill="none" stroke="black" d="M685.67,-160.84C685.67,-168.55 685.67,-175.8 685.67,-175.8 685.67,-175.8 327.91,-175.8 327.91,-175.8 327.91,-175.8 327.91,-331.48 327.91,-331.48"/>
<polygon fill="black" stroke="black" points="324.41,-331.48 327.91,-341.48 331.41,-331.48 324.41,-331.48"/>
</g>
<!-- FlightsService  -->
<g id="node13" class="node">
<title>FlightsService </title>
<polygon fill="#fb8072" stroke="black" points="1079.38,-225.8 978.62,-225.8 978.62,-189.8 1079.38,-189.8 1079.38,-225.8"/>
<text text-anchor="middle" x="1029" y="-203.6" font-family="Times,serif" font-size="14.00">FlightsService </text>
</g>
<!-- FlightsModule&#45;&gt;FlightsService  -->
<g id="edge15" class="edge">
<title>FlightsModule&#45;&gt;FlightsService </title>
<path fill="none" stroke="black" stroke-dasharray="5,2" d="M781.38,-136.8C865.83,-136.8 1029,-136.8 1029,-136.8 1029,-136.8 1029,-179.52 1029,-179.52"/>
<polygon fill="black" stroke="black" points="1025.5,-179.52 1029,-189.52 1032.5,-179.52 1025.5,-179.52"/>
</g>
<!-- PassengersModule -->
<g id="node4" class="node">
<title>PassengersModule</title>
<polygon fill="#8dd3c7" stroke="black" points="673.47,-225.8 670.47,-229.8 649.47,-229.8 646.47,-225.8 552.53,-225.8 552.53,-189.8 673.47,-189.8 673.47,-225.8"/>
<text text-anchor="middle" x="613" y="-203.6" font-family="Times,serif" font-size="14.00">PassengersModule</text>
</g>
<!-- PassengersModule&#45;&gt;BookingsModule -->
<g id="edge10" class="edge">
<title>PassengersModule&#45;&gt;BookingsModule</title>
<path fill="none" stroke="black" d="M626.91,-225.81C626.91,-225.81 626.91,-255.65 626.91,-255.65"/>
<polygon fill="black" stroke="black" points="623.41,-255.65 626.91,-265.65 630.41,-255.65 623.41,-255.65"/>
</g>
<!-- PassengersModule&#45;&gt;AppModule -->
<g id="edge4" class="edge">
<title>PassengersModule&#45;&gt;AppModule</title>
<path fill="none" stroke="black" d="M552.48,-207.8C471.29,-207.8 337.21,-207.8 337.21,-207.8 337.21,-207.8 337.21,-331.77 337.21,-331.77"/>
<polygon fill="black" stroke="black" points="333.71,-331.77 337.21,-341.77 340.71,-331.77 333.71,-331.77"/>
</g>
<!-- PassengersService  -->
<g id="node15" class="node">
<title>PassengersService </title>
<polygon fill="#fb8072" stroke="black" points="1131.4,-301.8 1008.6,-301.8 1008.6,-265.8 1131.4,-265.8 1131.4,-301.8"/>
<text text-anchor="middle" x="1070" y="-279.6" font-family="Times,serif" font-size="14.00">PassengersService </text>
</g>
<!-- PassengersModule&#45;&gt;PassengersService  -->
<g id="edge17" class="edge">
<title>PassengersModule&#45;&gt;PassengersService </title>
<path fill="none" stroke="black" stroke-dasharray="5,2" d="M642.44,-225.86C642.44,-237.24 642.44,-249.8 642.44,-249.8 642.44,-249.8 1043.87,-249.8 1043.87,-249.8 1043.87,-249.8 1043.87,-255.61 1043.87,-255.61"/>
<polygon fill="black" stroke="black" points="1040.37,-255.61 1043.87,-265.61 1047.37,-255.61 1040.37,-255.61"/>
</g>
<!-- SeatsModule&#45;&gt;BookingsModule -->
<g id="edge11" class="edge">
<title>SeatsModule&#45;&gt;BookingsModule</title>
<path fill="none" stroke="black" d="M708.03,-225.81C708.03,-225.81 708.03,-255.65 708.03,-255.65"/>
<polygon fill="black" stroke="black" points="704.53,-255.65 708.03,-265.65 711.53,-255.65 704.53,-255.65"/>
</g>
<!-- SeatsModule&#45;&gt;AppModule -->
<g id="edge5" class="edge">
<title>SeatsModule&#45;&gt;AppModule</title>
<path fill="none" stroke="black" d="M766.56,-226C766.56,-267.15 766.56,-363.8 766.56,-363.8 766.56,-363.8 365.76,-363.8 365.76,-363.8"/>
<polygon fill="black" stroke="black" points="365.76,-360.3 355.76,-363.8 365.76,-367.3 365.76,-360.3"/>
</g>
<!-- SeatsService  -->
<g id="node17" class="node">
<title>SeatsService </title>
<polygon fill="#fb8072" stroke="black" points="1406.52,-301.8 1315.48,-301.8 1315.48,-265.8 1406.52,-265.8 1406.52,-301.8"/>
<text text-anchor="middle" x="1361" y="-279.6" font-family="Times,serif" font-size="14.00">SeatsService </text>
</g>
<!-- SeatsModule&#45;&gt;SeatsService  -->
<g id="edge20" class="edge">
<title>SeatsModule&#45;&gt;SeatsService </title>
<path fill="none" stroke="black" stroke-dasharray="5,2" d="M738.6,-225.86C738.6,-230.29 738.6,-233.8 738.6,-233.8 738.6,-233.8 1361,-233.8 1361,-233.8 1361,-233.8 1361,-255.75 1361,-255.75"/>
<polygon fill="black" stroke="black" points="1357.5,-255.75 1361,-265.75 1364.5,-255.75 1357.5,-255.75"/>
</g>
<!-- SettingsModule -->
<g id="node6" class="node">
<title>SettingsModule</title>
<polygon fill="#8dd3c7" stroke="black" points="664.16,-160.8 661.16,-164.8 640.16,-164.8 637.16,-160.8 559.84,-160.8 559.84,-124.8 664.16,-124.8 664.16,-160.8"/>
<text text-anchor="middle" x="612" y="-138.6" font-family="Times,serif" font-size="14.00">SettingsModule</text>
</g>
<!-- SettingsModule&#45;&gt;AppModule -->
<g id="edge6" class="edge">
<title>SettingsModule&#45;&gt;AppModule</title>
<path fill="none" stroke="black" d="M559.76,-142.8C552.19,-142.8 546.89,-142.8 546.89,-142.8 546.89,-142.8 546.89,-356.8 546.89,-356.8 546.89,-356.8 365.91,-356.8 365.91,-356.8"/>
<polygon fill="black" stroke="black" points="365.91,-353.3 355.91,-356.8 365.91,-360.3 365.91,-353.3"/>
</g>
<!-- UsersModule -->
<g id="node7" class="node">
<title>UsersModule</title>
<polygon fill="#8dd3c7" stroke="black" points="400.92,-160.8 397.92,-164.8 376.92,-164.8 373.92,-160.8 309.08,-160.8 309.08,-124.8 400.92,-124.8 400.92,-160.8"/>
<text text-anchor="middle" x="355" y="-138.6" font-family="Times,serif" font-size="14.00">UsersModule</text>
</g>
<!-- UsersModule&#45;&gt;AppModule -->
<g id="edge7" class="edge">
<title>UsersModule&#45;&gt;AppModule</title>
<path fill="none" stroke="black" d="M318.6,-160.93C318.6,-160.93 318.6,-331.57 318.6,-331.57"/>
<polygon fill="black" stroke="black" points="315.1,-331.57 318.6,-341.57 322.1,-331.57 315.1,-331.57"/>
</g>
<!-- UsersService  -->
<g id="node20" class="node">
<title>UsersService </title>
<polygon fill="#fb8072" stroke="black" points="401.85,-84.8 308.15,-84.8 308.15,-48.8 401.85,-48.8 401.85,-84.8"/>
<text text-anchor="middle" x="355" y="-62.6" font-family="Times,serif" font-size="14.00">UsersService </text>
</g>
<!-- UsersModule&#45;&gt;UsersService  -->
<g id="edge23" class="edge">
<title>UsersModule&#45;&gt;UsersService </title>
<path fill="none" stroke="black" stroke-dasharray="5,2" d="M355,-124.79C355,-124.79 355,-94.95 355,-94.95"/>
<polygon fill="black" stroke="black" points="358.5,-94.95 355,-84.95 351.5,-94.95 358.5,-94.95"/>
</g>
<!-- AppService -->
<g id="node9" class="node">
<title>AppService</title>
<ellipse fill="#fdb462" stroke="black" cx="228" cy="-283.8" rx="56.74" ry="18"/>
<text text-anchor="middle" x="228" y="-279.6" font-family="Times,serif" font-size="14.00">AppService</text>
</g>
<!-- AppService&#45;&gt;AppModule -->
<g id="edge8" class="edge">
<title>AppService&#45;&gt;AppModule</title>
<path fill="none" stroke="black" d="M278.4,-292.22C278.4,-292.22 278.4,-331.53 278.4,-331.53"/>
<polygon fill="black" stroke="black" points="274.9,-331.53 278.4,-341.53 281.9,-331.53 274.9,-331.53"/>
</g>
<!-- BookingsService -->
<g id="node11" class="node">
<title>BookingsService</title>
<ellipse fill="#fdb462" stroke="black" cx="898" cy="-359.8" rx="77.03" ry="18"/>
<text text-anchor="middle" x="898" y="-355.6" font-family="Times,serif" font-size="14.00">BookingsService</text>
</g>
<!-- BookingsService&#45;&gt;BookingsModule -->
<g id="edge13" class="edge">
<title>BookingsService&#45;&gt;BookingsModule</title>
<path fill="none" stroke="black" d="M836.93,-370.8C774.58,-370.8 686.87,-370.8 686.87,-370.8 686.87,-370.8 686.87,-311.83 686.87,-311.83"/>
<polygon fill="black" stroke="black" points="690.37,-311.83 686.87,-301.83 683.37,-311.83 690.37,-311.83"/>
</g>
<!-- CloudinaryService -->
<g id="node12" class="node">
<title>CloudinaryService</title>
<ellipse fill="#fdb462" stroke="black" cx="525" cy="-66.8" rx="83.39" ry="18"/>
<text text-anchor="middle" x="525" y="-62.6" font-family="Times,serif" font-size="14.00">CloudinaryService</text>
</g>
<!-- CloudinaryService&#45;&gt;CloudinaryModule -->
<g id="edge14" class="edge">
<title>CloudinaryService&#45;&gt;CloudinaryModule</title>
<path fill="none" stroke="black" d="M491.41,-83.29C491.41,-83.29 491.41,-114.75 491.41,-114.75"/>
<polygon fill="black" stroke="black" points="487.91,-114.75 491.41,-124.75 494.91,-114.75 487.91,-114.75"/>
</g>
<!-- FlightsService -->
<g id="node14" class="node">
<title>FlightsService</title>
<ellipse fill="#fdb462" stroke="black" cx="888" cy="-207.8" rx="66.65" ry="18"/>
<text text-anchor="middle" x="888" y="-203.6" font-family="Times,serif" font-size="14.00">FlightsService</text>
</g>
<!-- FlightsService&#45;&gt;FlightsModule -->
<g id="edge16" class="edge">
<title>FlightsService&#45;&gt;FlightsModule</title>
<path fill="none" stroke="black" d="M888,-189.78C888,-172.43 888,-148.8 888,-148.8 888,-148.8 791.36,-148.8 791.36,-148.8"/>
<polygon fill="black" stroke="black" points="791.36,-145.3 781.36,-148.8 791.36,-152.3 791.36,-145.3"/>
</g>
<!-- PassengersService -->
<g id="node16" class="node">
<title>PassengersService</title>
<ellipse fill="#fdb462" stroke="black" cx="903" cy="-283.8" rx="82.22" ry="18"/>
<text text-anchor="middle" x="903" y="-279.6" font-family="Times,serif" font-size="14.00">PassengersService</text>
</g>
<!-- PassengersService&#45;&gt;PassengersModule -->
<g id="edge18" class="edge">
<title>PassengersService&#45;&gt;PassengersModule</title>
<path fill="none" stroke="black" d="M888,-266.03C888,-261.46 888,-257.8 888,-257.8 888,-257.8 657.96,-257.8 657.96,-257.8 657.96,-257.8 657.96,-235.85 657.96,-235.85"/>
<polygon fill="black" stroke="black" points="661.46,-235.85 657.96,-225.85 654.46,-235.85 661.46,-235.85"/>
</g>
<!-- SeatsService -->
<g id="node18" class="node">
<title>SeatsService</title>
<ellipse fill="#fdb462" stroke="black" cx="1231" cy="-283.8" rx="60.25" ry="18"/>
<text text-anchor="middle" x="1231" y="-279.6" font-family="Times,serif" font-size="14.00">SeatsService</text>
</g>
<!-- SeatsService&#45;&gt;SeatsModule -->
<g id="edge21" class="edge">
<title>SeatsService&#45;&gt;SeatsModule</title>
<path fill="none" stroke="black" d="M1231,-265.74C1231,-254.36 1231,-241.8 1231,-241.8 1231,-241.8 752.58,-241.8 752.58,-241.8 752.58,-241.8 752.58,-235.99 752.58,-235.99"/>
<polygon fill="black" stroke="black" points="756.08,-235.99 752.58,-225.99 749.08,-235.99 756.08,-235.99"/>
</g>
<!-- SettingsService -->
<g id="node19" class="node">
<title>SettingsService</title>
<ellipse fill="#fdb462" stroke="black" cx="719" cy="-66.8" rx="71.22" ry="18"/>
<text text-anchor="middle" x="719" y="-62.6" font-family="Times,serif" font-size="14.00">SettingsService</text>
</g>
<!-- SettingsService&#45;&gt;SettingsModule -->
<g id="edge22" class="edge">
<title>SettingsService&#45;&gt;SettingsModule</title>
<path fill="none" stroke="black" d="M656.11,-75.22C656.11,-75.22 656.11,-114.53 656.11,-114.53"/>
<polygon fill="black" stroke="black" points="652.61,-114.53 656.11,-124.53 659.61,-114.53 652.61,-114.53"/>
</g>
<!-- AuthService -->
<g id="node21" class="node">
<title>AuthService</title>
<ellipse fill="#fdb462" stroke="black" cx="225" cy="-66.8" rx="59.11" ry="18"/>
<text text-anchor="middle" x="225" y="-62.6" font-family="Times,serif" font-size="14.00">AuthService</text>
</g>
<!-- AuthService&#45;&gt;UsersModule -->
<g id="edge24" class="edge">
<title>AuthService&#45;&gt;UsersModule</title>
<path fill="none" stroke="black" d="M227.84,-84.83C227.84,-105.57 227.84,-136.8 227.84,-136.8 227.84,-136.8 299.09,-136.8 299.09,-136.8"/>
<polygon fill="black" stroke="black" points="299.09,-140.3 309.09,-136.8 299.09,-133.3 299.09,-140.3"/>
</g>
<!-- UsersService -->
<g id="node22" class="node">
<title>UsersService</title>
<ellipse fill="#fdb462" stroke="black" cx="86" cy="-66.8" rx="61.95" ry="18"/>
<text text-anchor="middle" x="86" y="-62.6" font-family="Times,serif" font-size="14.00">UsersService</text>
</g>
<!-- UsersService&#45;&gt;UsersModule -->
<g id="edge25" class="edge">
<title>UsersService&#45;&gt;UsersModule</title>
<path fill="none" stroke="black" d="M86,-85C86,-109.16 86,-148.8 86,-148.8 86,-148.8 299.06,-148.8 299.06,-148.8"/>
<polygon fill="black" stroke="black" points="299.06,-152.3 309.06,-148.8 299.06,-145.3 299.06,-152.3"/>
</g>
</g>
</svg>
